<svg width="24" height="25" viewBox="0 0 24 25" fill="none" xmlns="http://www.w3.org/2000/svg">
<g clip-path="url(#clip0_2039_80033)">
<path d="M22 9.95254C22 16.5166 12.733 21.8297 12.3384 22.0491C12.2344 22.1079 12.1181 22.1387 12 22.1387C11.8819 22.1387 11.7656 22.1079 11.6616 22.0491C11.267 21.8297 2 16.5166 2 9.95254C2.00165 8.41114 2.58541 6.93337 3.6232 5.84343C4.66099 4.7535 6.06806 4.14041 7.53571 4.13867C9.37946 4.13867 10.9937 4.97137 12 6.37889C13.0063 4.97137 14.6205 4.13867 16.4643 4.13867C17.9319 4.14041 19.339 4.7535 20.3768 5.84343C21.4146 6.93337 21.9983 8.41114 22 9.95254Z" fill="#FF4564"/>
</g>
<defs>
<clipPath id="clip0_2039_80033">
<rect width="24" height="24" fill="white" transform="translate(0 0.138672)"/>
</clipPath>
</defs>
</svg>
