<svg width="24" height="24" viewBox="0 0 24 24" fill="none" xmlns="http://www.w3.org/2000/svg">
<path fill-rule="evenodd" clip-rule="evenodd" d="M8.98578 8.47242C8.98578 7.95271 9.40226 7.5314 9.91601 7.5314H14.1021C14.6158 7.5314 15.0323 7.95271 15.0323 8.47242C15.0323 8.99214 14.6158 9.41345 14.1021 9.41345H9.91601C9.40226 9.41345 8.98578 8.99214 8.98578 8.47242Z" fill="#292929"/>
<path fill-rule="evenodd" clip-rule="evenodd" d="M13.4443 4.89569C14.0113 4.32219 14.7802 4 15.582 4C16.3838 4 17.1527 4.32219 17.7197 4.89569C17.8014 4.9783 17.8671 5.07556 17.9136 5.1825L21.7202 13.9446C21.9269 14.4204 21.7132 14.9757 21.2429 15.1848C20.7726 15.3939 20.2237 15.1777 20.017 14.7019L16.2914 6.1263C16.0892 5.96879 15.84 5.88205 15.582 5.88205C15.3884 5.88205 15.1998 5.93088 15.0323 6.0218V15.5301C15.0323 16.0498 14.6158 16.4711 14.1021 16.4711C13.5883 16.4711 13.1718 16.0498 13.1718 15.5301V5.56112C13.1718 5.31154 13.2698 5.07217 13.4443 4.89569Z" fill="#292929"/>
<path fill-rule="evenodd" clip-rule="evenodd" d="M6.29837 4.89569C6.86534 4.32219 7.63429 4 8.43607 4C9.23785 4 10.0068 4.32219 10.5738 4.89569C10.7482 5.07217 10.8462 5.31154 10.8462 5.56112V15.5301C10.8462 16.0498 10.4298 16.4711 9.91601 16.4711C9.40226 16.4711 8.98578 16.0498 8.98578 15.5301V6.0218C8.81824 5.93088 8.62964 5.88205 8.43607 5.88205C8.17807 5.88205 7.92891 5.96879 7.72669 6.1263L4.00106 14.7019C3.79435 15.1777 3.2455 15.3939 2.77516 15.1848C2.30483 14.9757 2.09112 14.4204 2.29782 13.9446L6.10451 5.1825C6.15097 5.07556 6.21671 4.9783 6.29837 4.89569Z" fill="#292929"/>
<path fill-rule="evenodd" clip-rule="evenodd" d="M6.42764 12.9423C5.01482 12.9423 3.8695 14.1009 3.8695 15.5301C3.8695 16.9593 5.01482 18.1179 6.42764 18.1179C7.84046 18.1179 8.98578 16.9593 8.98578 15.5301C8.98578 14.1009 7.84046 12.9423 6.42764 12.9423ZM2.00903 15.5301C2.00903 13.0615 3.98731 11.0602 6.42764 11.0602C8.86797 11.0602 10.8462 13.0615 10.8462 15.5301C10.8462 17.9988 8.86797 20 6.42764 20C3.98731 20 2.00903 17.9988 2.00903 15.5301Z" fill="#292929"/>
<path fill-rule="evenodd" clip-rule="evenodd" d="M17.5904 12.9423C16.1776 12.9423 15.0323 14.1009 15.0323 15.5301C15.0323 16.9593 16.1776 18.1179 17.5904 18.1179C19.0033 18.1179 20.1486 16.9593 20.1486 15.5301C20.1486 14.1009 19.0033 12.9423 17.5904 12.9423ZM13.1718 15.5301C13.1718 13.0615 15.1501 11.0602 17.5904 11.0602C20.0308 11.0602 22.009 13.0615 22.009 15.5301C22.009 17.9988 20.0308 20 17.5904 20C15.1501 20 13.1718 17.9988 13.1718 15.5301Z" fill="#292929"/>
</svg>
