<svg width="24" height="24" viewBox="0 0 24 24" fill="none" xmlns="http://www.w3.org/2000/svg">
<path fill-rule="evenodd" clip-rule="evenodd" d="M14.7907 5.83784C14.2973 5.83784 13.8241 6.03147 13.4752 6.37613C13.1262 6.72079 12.9302 7.18825 12.9302 7.67568C12.9302 8.18318 12.5138 8.59459 12 8.59459C11.4862 8.59459 11.0698 8.18318 11.0698 7.67568C11.0698 6.70083 11.4618 5.7659 12.1596 5.07658C12.8574 4.38726 13.8038 4 14.7907 4H21.0698C21.5835 4 22 4.41141 22 4.91892V17.3243C22 17.8318 21.5835 18.2432 21.0698 18.2432H14.7907C14.2973 18.2432 13.8241 18.4369 13.4752 18.7815C13.1262 19.1262 12.9302 19.5937 12.9302 20.0811C12.9302 20.5886 12.5138 21 12 21C11.4862 21 11.0698 20.5886 11.0698 20.0811C11.0698 19.1062 11.4618 18.1713 12.1596 17.482C12.8574 16.7927 13.8038 16.4054 14.7907 16.4054H20.1395V5.83784H14.7907Z" fill="#292929"/>
<path fill-rule="evenodd" clip-rule="evenodd" d="M2 4.91892C2 4.41141 2.41648 4 2.93023 4H9.2093C10.1962 4 11.1426 4.38726 11.8404 5.07658C12.5382 5.7659 12.9302 6.70083 12.9302 7.67568V20.0811C12.9302 20.5886 12.5138 21 12 21C11.4862 21 11.0698 20.5886 11.0698 20.0811C11.0698 19.5937 10.8738 19.1262 10.5249 18.7815C10.1759 18.4369 9.70273 18.2432 9.2093 18.2432H2.93023C2.41648 18.2432 2 17.8318 2 17.3243V4.91892ZM11.0698 16.8978V7.67568C11.0698 7.18825 10.8738 6.72079 10.5249 6.37613C10.1759 6.03147 9.70273 5.83784 9.2093 5.83784H3.86047V16.4054H9.2093C9.86812 16.4054 10.5089 16.578 11.0698 16.8978Z" fill="#292929"/>
<path fill-rule="evenodd" clip-rule="evenodd" d="M13.8605 8.36486C13.8605 7.85736 14.2769 7.44595 14.7907 7.44595H18.2791C18.7928 7.44595 19.2093 7.85736 19.2093 8.36486C19.2093 8.87237 18.7928 9.28378 18.2791 9.28378H14.7907C14.2769 9.28378 13.8605 8.87237 13.8605 8.36486Z" fill="#292929"/>
<path fill-rule="evenodd" clip-rule="evenodd" d="M13.8605 11.1216C13.8605 10.6141 14.2769 10.2027 14.7907 10.2027H18.2791C18.7928 10.2027 19.2093 10.6141 19.2093 11.1216C19.2093 11.6291 18.7928 12.0405 18.2791 12.0405H14.7907C14.2769 12.0405 13.8605 11.6291 13.8605 11.1216Z" fill="#292929"/>
<path fill-rule="evenodd" clip-rule="evenodd" d="M13.8605 13.8784C13.8605 13.3709 14.2769 12.9595 14.7907 12.9595H18.2791C18.7928 12.9595 19.2093 13.3709 19.2093 13.8784C19.2093 14.3859 18.7928 14.7973 18.2791 14.7973H14.7907C14.2769 14.7973 13.8605 14.3859 13.8605 13.8784Z" fill="#292929"/>
</svg>
