<svg width="24" height="24" viewBox="0 0 24 24" fill="none" xmlns="http://www.w3.org/2000/svg">
<path fill-rule="evenodd" clip-rule="evenodd" d="M8 14.25C8 13.6977 8.44772 13.25 9 13.25H15C15.5523 13.25 16 13.6977 16 14.25C16 14.8023 15.5523 15.25 15 15.25H9C8.44772 15.25 8 14.8023 8 14.25Z" fill="#292929"/>
<path fill-rule="evenodd" clip-rule="evenodd" d="M8 11.25C8 10.6977 8.44772 10.25 9 10.25H15C15.5523 10.25 16 10.6977 16 11.25C16 11.8023 15.5523 12.25 15 12.25H9C8.44772 12.25 8 11.8023 8 11.25Z" fill="#292929"/>
<path fill-rule="evenodd" clip-rule="evenodd" d="M5.5 4.75H9C9.55228 4.75 10 4.30228 10 3.75C10 3.19772 9.55228 2.75 9 2.75H5.25C4.78587 2.75 4.34075 2.93438 4.01256 3.26256C3.68438 3.59075 3.5 4.03587 3.5 4.5V20.25C3.5 20.7141 3.68437 21.1592 4.01256 21.4874C4.34075 21.8156 4.78587 22 5.25 22H18.75C19.2141 22 19.6592 21.8156 19.9874 21.4874C20.3156 21.1592 20.5 20.7141 20.5 20.25V4.5C20.5 4.03587 20.3156 3.59075 19.9874 3.26256C19.6592 2.93437 19.2141 2.75 18.75 2.75H15C14.4477 2.75 14 3.19772 14 3.75C14 4.30228 14.4477 4.75 15 4.75H18.5V20H5.5V4.75Z" fill="#292929"/>
<path fill-rule="evenodd" clip-rule="evenodd" d="M12 3.25C11.2707 3.25 10.5712 3.53973 10.0555 4.05546C9.59899 4.51192 9.31957 5.11233 9.26138 5.75H14.7386C14.6804 5.11233 14.401 4.51192 13.9445 4.05546C13.4288 3.53973 12.7293 3.25 12 3.25ZM8.64124 2.64124C9.53204 1.75044 10.7402 1.25 12 1.25C13.2598 1.25 14.468 1.75044 15.3588 2.64124C16.2496 3.53204 16.75 4.74022 16.75 6V6.75C16.75 7.30228 16.3023 7.75 15.75 7.75H8.25C7.69772 7.75 7.25 7.30228 7.25 6.75V6C7.25 4.74022 7.75045 3.53204 8.64124 2.64124Z" fill="#292929"/>
</svg>
