<svg width="24" height="24" viewBox="0 0 24 24" fill="none" xmlns="http://www.w3.org/2000/svg">
<path fill-rule="evenodd" clip-rule="evenodd" d="M21 17.75C21.5523 17.75 22 18.1977 22 18.75V19.5C22 20.5609 21.5786 21.5783 20.8284 22.3284C20.0783 23.0786 19.0609 23.5 18 23.5H12.75C12.1977 23.5 11.75 23.0523 11.75 22.5C11.75 21.9477 12.1977 21.5 12.75 21.5H18C18.5304 21.5 19.0391 21.2893 19.4142 20.9142C19.7893 20.5391 20 20.0304 20 19.5V18.75C20 18.1977 20.4477 17.75 21 17.75Z" fill="#292929"/>
<path fill-rule="evenodd" clip-rule="evenodd" d="M8.17317 2.7612C9.38642 2.25866 10.6868 2 12 2C13.3132 2 14.6136 2.25866 15.8268 2.7612C17.0401 3.26375 18.1425 4.00035 19.0711 4.92893C19.9997 5.85752 20.7362 6.95991 21.2388 8.17317C21.7413 9.38642 22 10.6868 22 12V18.75C22 19.3023 21.5523 19.75 21 19.75H18C17.337 19.75 16.7011 19.4866 16.2322 19.0178C15.7634 18.5489 15.5 17.913 15.5 17.25V13.5C15.5 12.837 15.7634 12.2011 16.2322 11.7322C16.7011 11.2634 17.337 11 18 11H19.9373C19.8482 10.293 19.6649 9.59962 19.391 8.93853C18.989 7.96793 18.3997 7.08601 17.6569 6.34315C16.914 5.60028 16.0321 5.011 15.0615 4.60896C14.0909 4.20693 13.0506 4 12 4C10.9494 4 9.90914 4.20693 8.93853 4.60896C7.96793 5.011 7.08601 5.60028 6.34315 6.34315C5.60028 7.08601 5.011 7.96793 4.60896 8.93853C4.33513 9.59962 4.15182 10.293 4.06275 11H6C6.66304 11 7.29893 11.2634 7.76777 11.7322C8.23661 12.2011 8.5 12.837 8.5 13.5V17.25C8.5 17.913 8.23661 18.5489 7.76777 19.0178C7.29893 19.4866 6.66304 19.75 6 19.75H4.5C3.83696 19.75 3.20107 19.4866 2.73223 19.0178C2.26339 18.5489 2 17.913 2 17.25V12C2 10.6868 2.25866 9.38642 2.7612 8.17317C3.26375 6.95991 4.00035 5.85752 4.92893 4.92893C5.85752 4.00035 6.95991 3.26375 8.17317 2.7612ZM4 13V17.25C4 17.3826 4.05268 17.5098 4.14645 17.6036C4.24022 17.6973 4.36739 17.75 4.5 17.75H6C6.13261 17.75 6.25978 17.6973 6.35355 17.6036C6.44732 17.5098 6.5 17.3826 6.5 17.25V13.5C6.5 13.3674 6.44732 13.2402 6.35355 13.1464C6.25978 13.0527 6.13261 13 6 13H4ZM20 13H18C17.8674 13 17.7402 13.0527 17.6464 13.1464C17.5527 13.2402 17.5 13.3674 17.5 13.5V17.25C17.5 17.3826 17.5527 17.5098 17.6464 17.6036C17.7402 17.6973 17.8674 17.75 18 17.75H20V13Z" fill="#292929"/>
</svg>
