<svg width="24" height="24" viewBox="0 0 24 24" fill="none" xmlns="http://www.w3.org/2000/svg">
<path fill-rule="evenodd" clip-rule="evenodd" d="M9.00001 17C9.55229 17 10 17.4477 10 18C10 18.5304 10.2107 19.0391 10.5858 19.4142C10.9609 19.7893 11.4696 20 12 20C12.5304 20 13.0391 19.7893 13.4142 19.4142C13.7893 19.0391 14 18.5304 14 18C14 17.4477 14.4477 17 15 17C15.5523 17 16 17.4477 16 18C16 19.0609 15.5786 20.0783 14.8284 20.8284C14.0783 21.5786 13.0609 22 12 22C10.9391 22 9.92172 21.5786 9.17158 20.8284C8.42143 20.0783 8.00001 19.0609 8.00001 18C8.00001 17.4477 8.44772 17 9.00001 17Z" fill="#292929"/>
<path fill-rule="evenodd" clip-rule="evenodd" d="M12 4C10.475 4 9.01248 4.6058 7.93414 5.68414C6.85581 6.76247 6.25001 8.22501 6.25001 9.75C6.25001 12.9089 5.58955 15.5886 4.91697 17H19.0847C18.4111 15.5884 17.75 12.9095 17.75 9.75C17.75 8.22501 17.1442 6.76247 16.0659 5.68414C14.9875 4.6058 13.525 4 12 4ZM6.51993 4.26992C7.97333 2.81652 9.94458 2 12 2C14.0554 2 16.0267 2.81652 17.4801 4.26992C18.9335 5.72333 19.75 7.69457 19.75 9.75C19.75 12.9987 20.5099 15.5062 21.0123 16.374L21.0129 16.375C21.1662 16.6406 21.2471 16.9418 21.2474 17.2485C21.2476 17.5551 21.1673 17.8565 21.0145 18.1223C20.8616 18.3882 20.6415 18.6092 20.3764 18.7632C20.1112 18.9173 19.8102 18.9989 19.5035 19L19.5 19H4.49399C4.1877 18.9982 3.88725 18.9159 3.62268 18.7616C3.35811 18.6072 3.13869 18.3862 2.98634 18.1204C2.83399 17.8547 2.75405 17.5537 2.75452 17.2474C2.75498 16.9411 2.83583 16.6402 2.98899 16.375C3.4907 15.5071 4.25001 12.9979 4.25001 9.75C4.25001 7.69457 5.06652 5.72333 6.51993 4.26992Z" fill="#292929"/>
</svg>
