<svg width="24" height="24" viewBox="0 0 24 24" fill="none" xmlns="http://www.w3.org/2000/svg">
<path d="M12 13.1249C12.6213 13.1249 13.125 12.6212 13.125 11.9999C13.125 11.3786 12.6213 10.8749 12 10.8749C11.3787 10.8749 10.875 11.3786 10.875 11.9999C10.875 12.6212 11.3787 13.1249 12 13.1249Z" fill="#292929"/>
<path d="M7.875 13.1249C8.49632 13.1249 9 12.6212 9 11.9999C9 11.3786 8.49632 10.8749 7.875 10.8749C7.25368 10.8749 6.75 11.3786 6.75 11.9999C6.75 12.6212 7.25368 13.1249 7.875 13.1249Z" fill="#292929"/>
<path d="M16.125 13.1249C16.7463 13.1249 17.25 12.6212 17.25 11.9999C17.25 11.3786 16.7463 10.8749 16.125 10.8749C15.5037 10.8749 15 11.3786 15 11.9999C15 12.6212 15.5037 13.1249 16.125 13.1249Z" fill="#292929"/>
<path fill-rule="evenodd" clip-rule="evenodd" d="M5.90986 4.07165C7.83454 2.59317 10.2312 1.86511 12.6531 2.0232C15.0749 2.1813 17.3566 3.21476 19.0727 4.9309C20.7889 6.64704 21.8223 8.92873 21.9804 11.3506C22.1385 13.7724 21.4105 16.1691 19.932 18.0938C18.4535 20.0184 16.3255 21.3398 13.9448 21.8114C11.7148 22.2531 9.4056 21.9211 7.39583 20.8781L4.30451 21.9091C3.99616 22.012 3.66525 22.0269 3.34891 21.9522C3.03256 21.8776 2.74326 21.7163 2.51342 21.4865C2.28358 21.2566 2.1223 20.9673 2.04764 20.651C1.97298 20.3346 1.98791 20.0037 2.09074 19.6954L3.12513 16.6071C2.08248 14.5975 1.75058 12.2886 2.19227 10.0588C2.66387 7.67809 3.98518 5.55012 5.90986 4.07165ZM12.5228 4.01896C10.5853 3.89248 8.66797 4.47493 7.12822 5.65771C5.58848 6.84049 4.53143 8.54287 4.15415 10.4475C3.77687 12.352 4.10511 14.3288 5.07769 16.0093C5.22141 16.2576 5.25154 16.5557 5.16041 16.8278L4.14703 19.8534L7.17706 18.8428C7.44882 18.7522 7.74641 18.7824 7.99435 18.9259C9.6748 19.8985 11.6516 20.2268 13.5562 19.8495C15.4608 19.4722 17.1631 18.4151 18.3459 16.8754C19.5287 15.3357 20.1111 13.4183 19.9847 11.4808C19.8582 9.54338 19.0314 7.71802 17.6585 6.34511C16.2856 4.9722 14.4602 4.14543 12.5228 4.01896Z" fill="#292929"/>
</svg>
