<svg width="28" height="28" viewBox="0 0 28 28" fill="none" xmlns="http://www.w3.org/2000/svg">
<path fill-rule="evenodd" clip-rule="evenodd" d="M11 19C11.5523 19 12 19.4477 12 20C12 20.5304 12.2107 21.0391 12.5858 21.4142C12.9609 21.7893 13.4696 22 14 22C14.5304 22 15.0391 21.7893 15.4142 21.4142C15.7893 21.0391 16 20.5304 16 20C16 19.4477 16.4477 19 17 19C17.5523 19 18 19.4477 18 20C18 21.0609 17.5786 22.0783 16.8284 22.8284C16.0783 23.5786 15.0609 24 14 24C12.9391 24 11.9217 23.5786 11.1716 22.8284C10.4214 22.0783 10 21.0609 10 20C10 19.4477 10.4477 19 11 19Z" fill="#292929"/>
<path fill-rule="evenodd" clip-rule="evenodd" d="M14 6C12.475 6 11.0125 6.6058 9.93414 7.68414C8.85581 8.76247 8.25001 10.225 8.25001 11.75C8.25001 14.9089 7.58955 17.5886 6.91697 19H21.0847C20.4111 17.5884 19.75 14.9095 19.75 11.75C19.75 10.225 19.1442 8.76247 18.0659 7.68414C16.9875 6.6058 15.525 6 14 6ZM8.51993 6.26992C9.97333 4.81652 11.9446 4 14 4C16.0554 4 18.0267 4.81652 19.4801 6.26992C20.9335 7.72333 21.75 9.69457 21.75 11.75C21.75 14.9987 22.5099 17.5062 23.0123 18.374L23.0129 18.375C23.1662 18.6406 23.2471 18.9418 23.2474 19.2485C23.2476 19.5551 23.1673 19.8565 23.0145 20.1223C22.8616 20.3882 22.6415 20.6092 22.3764 20.7632C22.1112 20.9173 21.8102 20.9989 21.5035 21L21.5 21H6.49399C6.1877 20.9982 5.88725 20.9159 5.62268 20.7616C5.35811 20.6072 5.13869 20.3862 4.98634 20.1204C4.83399 19.8547 4.75405 19.5537 4.75452 19.2474C4.75498 18.9411 4.83583 18.6402 4.98899 18.375C5.4907 17.5071 6.25001 14.9979 6.25001 11.75C6.25001 9.69457 7.06652 7.72333 8.51993 6.26992Z" fill="#292929"/>
<circle cx="21" cy="7" r="4.5" fill="#FF4564" stroke="white"/>
</svg>
