<svg width="24" height="24" viewBox="0 0 24 24" fill="none" xmlns="http://www.w3.org/2000/svg">
<path fill-rule="evenodd" clip-rule="evenodd" d="M16.2789 2.98159C16.9074 2.35309 17.7598 2 18.6486 2C19.5375 2 20.3899 2.35309 21.0184 2.98159C21.6469 3.6101 22 4.46253 22 5.35137C22 6.2402 21.6469 7.09264 21.0184 7.72114C21.0111 7.7285 21.0036 7.73575 20.996 7.74288L18.2488 10.3236L21.1533 18.311C21.2861 18.6761 21.1953 19.0851 20.9206 19.3598L18.5733 21.7071C18.3615 21.919 18.0658 22.0247 17.7677 21.9951C17.4695 21.9656 17.2004 21.804 17.0342 21.5547L13.0162 15.5278L11.8243 16.7196V18.6527C11.8243 18.9179 11.719 19.1723 11.5314 19.3598L9.18414 21.7071C8.94646 21.9448 8.60525 22.0472 8.27597 21.9796C7.94669 21.912 7.6734 21.6835 7.54856 21.3714L6.14287 17.8572L2.62863 16.4515C2.31653 16.3266 2.08803 16.0533 2.02044 15.724C1.95285 15.3948 2.05522 15.0536 2.29291 14.8159L4.6402 12.4686C4.82774 12.281 5.0821 12.1757 5.34731 12.1757H7.28039L8.47226 10.9838L2.44532 6.96585C2.19604 6.79966 2.0344 6.53047 2.00488 6.23234C1.97536 5.9342 2.08107 5.63854 2.29291 5.42669L4.6402 3.0794C4.91493 2.80467 5.32392 2.71393 5.68905 2.84671L13.6764 5.75121L16.2571 3.00402C16.2643 2.99643 16.2715 2.98896 16.2789 2.98159ZM17.7027 4.38632L14.6829 7.60091C14.4091 7.89233 13.9881 7.99267 13.6123 7.85602L5.60409 4.94394L4.56966 5.97837L10.5966 9.99634C10.8459 10.1625 11.0075 10.4317 11.037 10.7299C11.0666 11.028 10.9609 11.3237 10.749 11.5355L8.40171 13.8828C8.21418 14.0703 7.95982 14.1757 7.69461 14.1757H5.76153L4.77948 15.1577L7.28357 16.1594C7.53767 16.261 7.73901 16.4623 7.84065 16.7165L8.84229 19.2205L9.82433 18.2385V16.3054C9.82433 16.0402 9.92969 15.7858 10.1172 15.5983L12.4645 13.251C12.6764 13.0392 12.972 12.9335 13.2702 12.963C13.5683 12.9925 13.8375 13.1541 14.0037 13.4034L18.0216 19.4304L19.0561 18.3959L16.144 10.3877C16.0073 10.0119 16.1077 9.59087 16.3991 9.31711L19.6137 6.29734C19.8612 6.04487 20 5.70527 20 5.35137C20 4.99296 19.8576 4.64924 19.6042 4.39581C19.3508 4.14238 19.0071 4 18.6486 4C18.2947 4 17.9551 4.13883 17.7027 4.38632Z" fill="#292929"/>
</svg>
