<svg width="24" height="24" viewBox="0 0 24 24" fill="none" xmlns="http://www.w3.org/2000/svg">
<path fill-rule="evenodd" clip-rule="evenodd" d="M12 6.15C8.27529 6.15 5.25581 9.07134 5.25581 12.675C5.25581 16.2787 8.27529 19.2 12 19.2C15.7247 19.2 18.7442 16.2787 18.7442 12.675C18.7442 9.07134 15.7247 6.15 12 6.15ZM3.39535 12.675C3.39535 8.07723 7.24778 4.35 12 4.35C16.7522 4.35 20.6047 8.07723 20.6047 12.675C20.6047 17.2728 16.7522 21 12 21C7.24778 21 3.39535 17.2728 3.39535 12.675Z" fill="#292929"/>
<path fill-rule="evenodd" clip-rule="evenodd" d="M6.3787 3.2636C6.74198 3.61508 6.74198 4.18492 6.3787 4.5364L3.58801 7.2364C3.22473 7.58787 2.63574 7.58787 2.27246 7.2364C1.90918 6.88492 1.90918 6.31508 2.27246 5.9636L5.06316 3.2636C5.42643 2.91213 6.01543 2.91213 6.3787 3.2636Z" fill="#292929"/>
<path fill-rule="evenodd" clip-rule="evenodd" d="M17.6213 3.2636C17.9846 2.91213 18.5736 2.91213 18.9368 3.2636L21.7275 5.9636C22.0908 6.31508 22.0908 6.88492 21.7275 7.2364C21.3643 7.58787 20.7753 7.58787 20.412 7.2364L17.6213 4.5364C17.258 4.18492 17.258 3.61508 17.6213 3.2636Z" fill="#292929"/>
<path fill-rule="evenodd" clip-rule="evenodd" d="M12 7.05C12.5138 7.05 12.9302 7.45294 12.9302 7.95V11.775H16.8837C17.3975 11.775 17.814 12.1779 17.814 12.675C17.814 13.1721 17.3975 13.575 16.8837 13.575H12C11.4862 13.575 11.0698 13.1721 11.0698 12.675V7.95C11.0698 7.45294 11.4862 7.05 12 7.05Z" fill="#292929"/>
</svg>
