<svg width="24" height="24" viewBox="0 0 24 24" fill="none" xmlns="http://www.w3.org/2000/svg">
<path d="M6.07702 4.18247L3.21999 6.95165C3.08597 7.08155 2.90419 7.15453 2.71465 7.15453C2.52512 7.15453 2.34334 7.08155 2.20932 6.95165C2.07529 6.82174 2 6.64556 2 6.46185C2 6.27814 2.07529 6.10195 2.20932 5.97205L5.06635 3.20288C5.20037 3.07298 5.38215 3 5.57168 3C5.76122 3 5.943 3.07298 6.07702 3.20288C6.21104 3.33278 6.28634 3.50897 6.28634 3.69268C6.28634 3.87639 6.21104 4.05257 6.07702 4.18247ZM21.7907 5.97205L18.9337 3.20288C18.7996 3.07298 18.6179 3 18.4283 3C18.2388 3 18.057 3.07298 17.923 3.20288C17.789 3.33278 17.7137 3.50897 17.7137 3.69268C17.7137 3.87639 17.789 4.05257 17.923 4.18247L20.78 6.95165C20.8464 7.01597 20.9252 7.06699 21.0119 7.1018C21.0986 7.13661 21.1915 7.15453 21.2853 7.15453C21.3792 7.15453 21.4721 7.13661 21.5588 7.1018C21.6455 7.06699 21.7243 7.01597 21.7907 6.95165C21.857 6.88733 21.9097 6.81096 21.9456 6.72693C21.9815 6.64289 22 6.55281 22 6.46185C22 6.37088 21.9815 6.28081 21.9456 6.19677C21.9097 6.11273 21.857 6.03637 21.7907 5.97205ZM20.5711 12.6925C20.5711 14.3356 20.0684 15.9417 19.1266 17.3079C18.1848 18.6741 16.8462 19.7388 15.28 20.3676C13.7139 20.9964 11.9905 21.1609 10.3279 20.8404C8.66524 20.5198 7.13801 19.7286 5.93933 18.5668C4.74064 17.405 3.92432 15.9247 3.5936 14.3132C3.26289 12.7017 3.43262 11.0313 4.08135 9.51334C4.73007 7.99534 5.82865 6.69788 7.23816 5.78504C8.64767 4.8722 10.3048 4.38497 12 4.38497C14.2724 4.38749 16.451 5.26355 18.0578 6.82097C19.6646 8.37838 20.5685 10.49 20.5711 12.6925ZM17.7141 12.6925C17.7141 12.5089 17.6388 12.3328 17.5049 12.203C17.3709 12.0731 17.1892 12.0002 16.9998 12.0002H12.7143V7.84643C12.7143 7.66283 12.639 7.48674 12.5051 7.35691C12.3711 7.22708 12.1894 7.15414 12 7.15414C11.8106 7.15414 11.6289 7.22708 11.4949 7.35691C11.361 7.48674 11.2857 7.66283 11.2857 7.84643V12.6925C11.2857 12.8761 11.361 13.0522 11.4949 13.182C11.6289 13.3118 11.8106 13.3848 12 13.3848H16.9998C17.1892 13.3848 17.3709 13.3118 17.5049 13.182C17.6388 13.0522 17.7141 12.8761 17.7141 12.6925Z" fill="#292929"/>
</svg>
