<svg width="24" height="24" viewBox="0 0 24 24" fill="none" xmlns="http://www.w3.org/2000/svg">
<path fill-rule="evenodd" clip-rule="evenodd" d="M10 9C10 8.44772 10.4477 8 11 8H18.6471C19.513 8 20.3572 8.31827 20.9908 8.90577C21.6269 9.49564 22 10.3125 22 11.1818V15C22 15.5523 21.5523 16 21 16C20.4477 16 20 15.5523 20 15V11.1818C20 10.8938 19.8773 10.6008 19.6309 10.3723C19.382 10.1415 19.0292 10 18.6471 10H12V15C12 15.5523 11.5523 16 11 16C10.4477 16 10 15.5523 10 15V9Z" fill="#292929"/>
<path fill-rule="evenodd" clip-rule="evenodd" d="M3 5C3.55228 5 4 5.44772 4 6V19C4 19.5523 3.55228 20 3 20C2.44772 20 2 19.5523 2 19V6C2 5.44772 2.44772 5 3 5Z" fill="#292929"/>
<path fill-rule="evenodd" clip-rule="evenodd" d="M2 15C2 14.4477 2.44772 14 3 14H21C21.5523 14 22 14.4477 22 15V19C22 19.5523 21.5523 20 21 20C20.4477 20 20 19.5523 20 19V16H3C2.44772 16 2 15.5523 2 15Z" fill="#292929"/>
<path fill-rule="evenodd" clip-rule="evenodd" d="M2 9C2 8.44772 2.44772 8 3 8H11C11.5523 8 12 8.44772 12 9C12 9.55228 11.5523 10 11 10H3C2.44772 10 2 9.55228 2 9Z" fill="#292929"/>
</svg>
