<svg width="24" height="24" viewBox="0 0 24 24" fill="none" xmlns="http://www.w3.org/2000/svg">
<path fill-rule="evenodd" clip-rule="evenodd" d="M8.89197 16.9398C9.46414 16.9398 9.92798 17.3929 9.92798 17.9518C9.92798 18.4887 10.1463 19.0035 10.5349 19.3831C10.9234 19.7627 11.4505 19.9759 12 19.9759C12.5495 19.9759 13.0766 19.7627 13.4651 19.3831C13.8537 19.0035 14.072 18.4887 14.072 17.9518C14.072 17.3929 14.5359 16.9398 15.108 16.9398C15.6802 16.9398 16.144 17.3929 16.144 17.9518C16.144 19.0255 15.7074 20.0551 14.9303 20.8143C14.1531 21.5735 13.0991 22 12 22C10.9009 22 9.84688 21.5735 9.06972 20.8143C8.29256 20.0551 7.85595 19.0255 7.85595 17.9518C7.85595 17.3929 8.31979 16.9398 8.89197 16.9398Z" fill="#292929"/>
<path fill-rule="evenodd" clip-rule="evenodd" d="M16.5657 1.46779C16.8735 0.996604 17.514 0.858357 17.9963 1.15901C19.6526 2.19137 20.996 3.63781 21.8871 5.3483C22.1466 5.84644 21.9436 6.45577 21.4337 6.70928C20.9237 6.9628 20.3 6.76449 20.0404 6.26635C19.317 4.87772 18.2264 3.70344 16.8818 2.86533C16.3994 2.56468 16.2579 1.93898 16.5657 1.46779Z" fill="#292929"/>
<path fill-rule="evenodd" clip-rule="evenodd" d="M7.43431 1.46779C7.74208 1.93898 7.60056 2.56468 7.11821 2.86533C5.77359 3.70344 4.683 4.87772 3.95955 6.26635C3.70003 6.76449 3.07627 6.9628 2.56634 6.70928C2.0564 6.45577 1.8534 5.84644 2.11291 5.3483C3.00404 3.63781 4.3474 2.19137 6.00367 1.15901C6.48602 0.858357 7.12654 0.996604 7.43431 1.46779Z" fill="#292929"/>
<path fill-rule="evenodd" clip-rule="evenodd" d="M12 4.54227C10.4201 4.54227 8.90488 5.15537 7.78772 6.24669C6.67055 7.33801 6.04293 8.81816 6.04293 10.3615C6.04293 13.5881 5.34834 15.6544 4.6709 16.9398H19.3308C18.6524 15.6544 17.9571 13.5887 17.9571 10.3615C17.9571 8.81816 17.3294 7.33801 16.2123 6.24669C15.0951 5.15537 13.5799 4.54227 12 4.54227ZM6.32258 4.81545C7.82832 3.34454 9.87055 2.51819 12 2.51819C14.1294 2.51819 16.1717 3.34454 17.6774 4.81545C19.1832 6.28636 20.0291 8.28134 20.0291 10.3615C20.0291 13.5916 20.792 15.3868 21.3369 16.3062L21.3375 16.3073C21.4963 16.576 21.5801 16.8809 21.5804 17.1912C21.5807 17.5016 21.4974 17.8066 21.3391 18.0756C21.1807 18.3447 20.9527 18.5684 20.678 18.7243C20.4033 18.8801 20.0914 18.9628 19.7737 18.9639L19.7701 18.9639H4.22368C3.90636 18.962 3.59509 18.8788 3.32099 18.7226C3.0469 18.5664 2.81957 18.3426 2.66174 18.0737C2.5039 17.8048 2.42109 17.5001 2.42157 17.1901C2.42205 16.8801 2.50581 16.5757 2.66448 16.3072C3.20862 15.3877 3.97091 13.5909 3.97091 10.3615C3.97091 8.28134 4.81683 6.28636 6.32258 4.81545Z" fill="#292929"/>
</svg>
