<svg width="24" height="24" viewBox="0 0 24 24" fill="none" xmlns="http://www.w3.org/2000/svg">
<path fill-rule="evenodd" clip-rule="evenodd" d="M4.75 5.5V20H19.25V5.5H4.75ZM2.75 5.25C2.75 4.2835 3.5335 3.5 4.5 3.5H19.5C20.4665 3.5 21.25 4.2835 21.25 5.25V20.25C21.25 21.2165 20.4665 22 19.5 22H4.5C3.5335 22 2.75 21.2165 2.75 20.25V5.25Z" fill="#292929"/>
<path fill-rule="evenodd" clip-rule="evenodd" d="M16.5 2C17.0523 2 17.5 2.44772 17.5 3V6C17.5 6.55228 17.0523 7 16.5 7C15.9477 7 15.5 6.55228 15.5 6V3C15.5 2.44772 15.9477 2 16.5 2Z" fill="#292929"/>
<path fill-rule="evenodd" clip-rule="evenodd" d="M7.5 2C8.05228 2 8.5 2.44772 8.5 3V6C8.5 6.55228 8.05228 7 7.5 7C6.94772 7 6.5 6.55228 6.5 6V3C6.5 2.44772 6.94772 2 7.5 2Z" fill="#292929"/>
<path fill-rule="evenodd" clip-rule="evenodd" d="M2.75 9C2.75 8.44772 3.19772 8 3.75 8H20.25C20.8023 8 21.25 8.44772 21.25 9C21.25 9.55228 20.8023 10 20.25 10H3.75C3.19772 10 2.75 9.55228 2.75 9Z" fill="#292929"/>
<path d="M12 14.25C12.6213 14.25 13.125 13.7463 13.125 13.125C13.125 12.5037 12.6213 12 12 12C11.3787 12 10.875 12.5037 10.875 13.125C10.875 13.7463 11.3787 14.25 12 14.25Z" fill="#292929"/>
<path d="M16.125 14.25C16.7463 14.25 17.25 13.7463 17.25 13.125C17.25 12.5037 16.7463 12 16.125 12C15.5037 12 15 12.5037 15 13.125C15 13.7463 15.5037 14.25 16.125 14.25Z" fill="#292929"/>
<path d="M7.875 18C8.49632 18 9 17.4963 9 16.875C9 16.2537 8.49632 15.75 7.875 15.75C7.25368 15.75 6.75 16.2537 6.75 16.875C6.75 17.4963 7.25368 18 7.875 18Z" fill="#292929"/>
<path d="M12 18C12.6213 18 13.125 17.4963 13.125 16.875C13.125 16.2537 12.6213 15.75 12 15.75C11.3787 15.75 10.875 16.2537 10.875 16.875C10.875 17.4963 11.3787 18 12 18Z" fill="#292929"/>
<path d="M16.125 18C16.7463 18 17.25 17.4963 17.25 16.875C17.25 16.2537 16.7463 15.75 16.125 15.75C15.5037 15.75 15 16.2537 15 16.875C15 17.4963 15.5037 18 16.125 18Z" fill="#292929"/>
</svg>
