<svg width="24" height="24" viewBox="0 0 24 24" fill="none" xmlns="http://www.w3.org/2000/svg">
<path d="M12 2C10.0222 2 8.08879 2.58649 6.4443 3.6853C4.79981 4.78412 3.51809 6.3459 2.76121 8.17316C2.00433 10.0004 1.8063 12.0111 2.19215 13.9509C2.578 15.8907 3.53041 17.6725 4.92894 19.0711C6.32746 20.4696 8.10929 21.422 10.0491 21.8078C11.9889 22.1937 13.9996 21.9957 15.8268 21.2388C17.6541 20.4819 19.2159 19.2002 20.3147 17.5557C21.4135 15.9112 22 13.9778 22 12C21.9972 9.34869 20.9427 6.80678 19.068 4.93202C17.1932 3.05727 14.6513 2.0028 12 2ZM17.3846 12.7692H12C11.796 12.7692 11.6003 12.6882 11.4561 12.5439C11.3118 12.3997 11.2308 12.204 11.2308 12V6.61538C11.2308 6.41137 11.3118 6.21571 11.4561 6.07146C11.6003 5.9272 11.796 5.84615 12 5.84615C12.204 5.84615 12.3997 5.9272 12.5439 6.07146C12.6882 6.21571 12.7692 6.41137 12.7692 6.61538V11.2308H17.3846C17.5886 11.2308 17.7843 11.3118 17.9285 11.4561C18.0728 11.6003 18.1538 11.796 18.1538 12C18.1538 12.204 18.0728 12.3997 17.9285 12.5439C17.7843 12.6882 17.5886 12.7692 17.3846 12.7692Z" fill="#292929"/>
</svg>
