<svg width="24" height="24" viewBox="0 0 24 24" fill="none" xmlns="http://www.w3.org/2000/svg">
<path fill-rule="evenodd" clip-rule="evenodd" d="M2.75001 10.5002C2.75001 9.94794 3.19772 9.50022 3.75001 9.50022H20.25C20.8023 9.50022 21.25 9.94794 21.25 10.5002V18.7502C21.25 19.2143 21.0656 19.6595 20.7374 19.9877C20.4093 20.3159 19.9641 20.5002 19.5 20.5002H4.50001C4.03588 20.5002 3.59076 20.3158 3.26257 19.9877C2.93438 19.6595 2.75001 19.2144 2.75001 18.7502V10.5002ZM4.75001 11.5002V18.5002H19.25V11.5002H4.75001Z" fill="#292929"/>
<path fill-rule="evenodd" clip-rule="evenodd" d="M17.5723 2.06007C18.014 1.94195 18.4845 2.00235 18.8821 2.2283C19.2806 2.45477 19.5736 2.82928 19.6977 3.27052L19.7 3.27869L20.4649 6.0912C20.5349 6.34837 20.4993 6.62283 20.366 6.85364C20.2328 7.08446 20.0129 7.25253 19.7552 7.32055L4.04553 11.4671C3.51437 11.6073 2.96956 11.2928 2.82538 10.7627L2.05944 7.94675C2.0002 7.72586 1.98542 7.49541 2.01594 7.26875C2.04646 7.0421 2.12168 6.82377 2.23723 6.62641C2.35279 6.42906 2.50638 6.25661 2.6891 6.11908C2.87043 5.98259 3.07686 5.88318 3.29659 5.82651L17.5693 2.06089L17.5723 2.06007ZM17.8393 4.05808L4.06302 7.69274L4.49476 9.28004L18.2706 5.64391L17.8393 4.05808Z" fill="#292929"/>
<path fill-rule="evenodd" clip-rule="evenodd" d="M5.48186 5.55542C5.75807 5.07716 6.36968 4.91337 6.84793 5.18958L11.3282 7.77708C11.8065 8.05328 11.9703 8.66489 11.6941 9.14315C11.4179 9.62141 10.8063 9.7852 10.328 9.509L5.8477 6.92149C5.36945 6.64529 5.20565 6.03368 5.48186 5.55542Z" fill="#292929"/>
<path fill-rule="evenodd" clip-rule="evenodd" d="M11.0037 4.09868C11.2798 3.62038 11.8914 3.45649 12.3697 3.73262L16.85 6.31919C17.3283 6.59532 17.4922 7.2069 17.216 7.6852C16.9399 8.1635 16.3283 8.32739 15.85 8.05126L11.3697 5.4647C10.8914 5.18857 10.7275 4.57698 11.0037 4.09868Z" fill="#292929"/>
</svg>
