<svg width="24" height="24" viewBox="0 0 24 24" fill="none" xmlns="http://www.w3.org/2000/svg">
<path fill-rule="evenodd" clip-rule="evenodd" d="M4 7V18.5H20V7H4ZM2 6.75C2 5.7835 2.7835 5 3.75 5H20.25C21.2165 5 22 5.7835 22 6.75V18.75C22 19.7165 21.2165 20.5 20.25 20.5H3.75C2.7835 20.5 2 19.7165 2 18.75V6.75Z" fill="#292929"/>
<path fill-rule="evenodd" clip-rule="evenodd" d="M7.98223 2.73223C8.45107 2.26339 9.08696 2 9.75 2H14.25C14.913 2 15.5489 2.26339 16.0178 2.73223C16.4866 3.20107 16.75 3.83696 16.75 4.5V6C16.75 6.55228 16.3023 7 15.75 7C15.1977 7 14.75 6.55228 14.75 6V4.5C14.75 4.36739 14.6973 4.24022 14.6036 4.14645C14.5098 4.05268 14.3826 4 14.25 4H9.75C9.61739 4 9.49022 4.05268 9.39645 4.14645C9.30268 4.24022 9.25 4.36739 9.25 4.5V6C9.25 6.55228 8.80228 7 8.25 7C7.69772 7 7.25 6.55228 7.25 6V4.5C7.25 3.83696 7.51339 3.20107 7.98223 2.73223Z" fill="#292929"/>
<path fill-rule="evenodd" clip-rule="evenodd" d="M12 9.5C12.5523 9.5 13 9.94772 13 10.5V15C13 15.5523 12.5523 16 12 16C11.4477 16 11 15.5523 11 15V10.5C11 9.94772 11.4477 9.5 12 9.5Z" fill="#292929"/>
<path fill-rule="evenodd" clip-rule="evenodd" d="M8.75 12.75C8.75 12.1977 9.19772 11.75 9.75 11.75H14.25C14.8023 11.75 15.25 12.1977 15.25 12.75C15.25 13.3023 14.8023 13.75 14.25 13.75H9.75C9.19772 13.75 8.75 13.3023 8.75 12.75Z" fill="#292929"/>
</svg>
