<svg width="24" height="24" viewBox="0 0 24 24" fill="none" xmlns="http://www.w3.org/2000/svg">
<path fill-rule="evenodd" clip-rule="evenodd" d="M10.8715 3.42857C10.573 3.42857 10.2868 3.54145 10.0757 3.74239C9.86468 3.94332 9.74612 4.21584 9.74612 4.5V14.1429C9.74612 14.4617 9.52411 14.742 9.20208 14.8296C8.88005 14.9173 8.53601 14.7911 8.35897 14.5204L6.60712 11.8418C6.60359 11.8364 6.60014 11.831 6.59677 11.8255C6.44647 11.5815 6.20087 11.4039 5.91356 11.3316C5.62626 11.2592 5.32057 11.2981 5.06321 11.4395C4.80584 11.581 4.6177 11.8136 4.53984 12.0867C4.46198 12.3597 4.50071 12.651 4.64759 12.897C4.79105 13.1373 4.93013 13.3707 5.06512 13.5972C6.61027 16.1906 7.62543 17.8944 8.68866 18.9939C9.2467 19.571 9.79516 19.954 10.4145 20.1993C11.038 20.4462 11.7788 20.5714 12.7472 20.5714C13.6339 20.5714 14.5119 20.4051 15.3312 20.0821C16.1504 19.759 16.8948 19.2855 17.5218 18.6885C18.1488 18.0916 18.6462 17.3829 18.9855 16.603C19.3248 15.823 19.4995 14.9871 19.4995 14.1429V10.9286C19.4995 10.6444 19.3809 10.3719 19.1699 10.171C18.9588 9.97003 18.6726 9.85714 18.3741 9.85714C18.0756 9.85714 17.7894 9.97003 17.5783 10.171C17.3673 10.3719 17.2487 10.6444 17.2487 10.9286C17.2487 11.3231 16.9128 11.6429 16.4984 11.6429C16.0841 11.6429 15.7482 11.3231 15.7482 10.9286V9.5C15.7482 9.21584 15.6296 8.94332 15.4186 8.74239C15.2075 8.54145 14.9213 8.42857 14.6228 8.42857C14.3243 8.42857 14.0381 8.54145 13.827 8.74239C13.616 8.94332 13.4974 9.21584 13.4974 9.5C13.4974 9.89449 13.1615 10.2143 12.7472 10.2143C12.3328 10.2143 11.9969 9.89449 11.9969 9.5V4.5C11.9969 4.21584 11.8783 3.94332 11.6673 3.74239C11.4562 3.54145 11.17 3.42857 10.8715 3.42857ZM13.4974 7.24123V4.5C13.4974 3.83696 13.2208 3.20107 12.7283 2.73223C12.2358 2.26339 11.5679 2 10.8715 2C10.1751 2 9.50716 2.26339 9.01471 2.73223C8.52225 3.20107 8.2456 3.83696 8.2456 4.5V11.6444L7.88573 11.0941C7.53457 10.5292 6.96399 10.1183 6.2971 9.95045C5.62672 9.78171 4.91344 9.87226 4.31293 10.2024C3.71242 10.5324 3.27342 11.0753 3.09174 11.7124C2.91007 12.3494 3.00043 13.0291 3.34311 13.6029C3.49941 13.8648 3.65142 14.1201 3.7996 14.3691C5.29354 16.8788 6.39794 18.7342 7.58472 19.9615C8.257 20.6567 8.97794 21.1777 9.8383 21.5183C10.6946 21.8574 11.6438 22 12.7472 22C13.8309 22 14.9041 21.7968 15.9054 21.4019C16.9067 21.0071 17.8164 20.4283 18.5828 19.6987C19.3491 18.9691 19.957 18.1029 20.3718 17.1497C20.7865 16.1964 21 15.1747 21 14.1429V10.9286C21 10.2655 20.7233 9.62965 20.2309 9.1608C19.7384 8.69196 19.0705 8.42857 18.3741 8.42857C17.9326 8.42857 17.5026 8.53441 17.1215 8.73133C16.9948 8.35804 16.7764 8.0148 16.4796 7.73223C15.9871 7.26339 15.3192 7 14.6228 7C14.2298 7 13.8459 7.08388 13.4974 7.24123Z" fill="#292929"/>
</svg>
