<svg width="24" height="24" viewBox="0 0 24 24" fill="none" xmlns="http://www.w3.org/2000/svg">
<path fill-rule="evenodd" clip-rule="evenodd" d="M4 5.5V18.5H20V5.5H4ZM2 5.25C2 4.2835 2.7835 3.5 3.75 3.5H20.25C21.2165 3.5 22 4.2835 22 5.25V18.75C22 19.7165 21.2165 20.5 20.25 20.5H3.75C2.7835 20.5 2 19.7165 2 18.75V5.25Z" fill="#292929"/>
<path fill-rule="evenodd" clip-rule="evenodd" d="M2 7.5C2 6.94772 2.44772 6.5 3 6.5H21C21.5523 6.5 22 6.94772 22 7.5C22 8.05228 21.5523 8.5 21 8.5H3C2.44772 8.5 2 8.05228 2 7.5Z" fill="#292929"/>
<path fill-rule="evenodd" clip-rule="evenodd" d="M8.25 9.5C8.80228 9.5 9.25 9.94772 9.25 10.5C9.25 11.2293 9.53973 11.9288 10.0555 12.4445C10.5712 12.9603 11.2707 13.25 12 13.25C12.7293 13.25 13.4288 12.9603 13.9445 12.4445C14.4603 11.9288 14.75 11.2293 14.75 10.5C14.75 9.94772 15.1977 9.5 15.75 9.5C16.3023 9.5 16.75 9.94772 16.75 10.5C16.75 11.7598 16.2496 12.968 15.3588 13.8588C14.468 14.7496 13.2598 15.25 12 15.25C10.7402 15.25 9.53204 14.7496 8.64124 13.8588C7.75045 12.968 7.25 11.7598 7.25 10.5C7.25 9.94772 7.69772 9.5 8.25 9.5Z" fill="#292929"/>
</svg>
