<svg width="24" height="24" viewBox="0 0 24 24" fill="none" xmlns="http://www.w3.org/2000/svg">
<path fill-rule="evenodd" clip-rule="evenodd" d="M15.375 4C14.8918 4 14.5 4.39175 14.5 4.875C14.5 5.35825 14.8918 5.75 15.375 5.75C15.8582 5.75 16.25 5.35825 16.25 4.875C16.25 4.39175 15.8582 4 15.375 4ZM12.5 4.875C12.5 3.28718 13.7872 2 15.375 2C16.9628 2 18.25 3.28718 18.25 4.875C18.25 6.46282 16.9628 7.75 15.375 7.75C13.7872 7.75 12.5 6.46282 12.5 4.875Z" fill="#292929"/>
<path fill-rule="evenodd" clip-rule="evenodd" d="M9.18618 7.82468L9.18672 7.82565ZM9.5 8.38795L14.2981 17H4.70187L9.5 8.38795ZM8.65892 6.23555C8.9111 6.08281 9.20124 6 9.5 6C9.79876 6 10.0889 6.08281 10.3411 6.23555C10.5924 6.38775 10.795 6.60251 10.9344 6.85321C10.9346 6.85362 10.9348 6.85402 10.9351 6.85443L16.8736 17.5133C17.0461 17.823 17.0418 18.2009 16.8622 18.5066C16.6826 18.8123 16.3545 19 16 19H3C2.64546 19 2.31743 18.8123 2.13782 18.5066C1.95821 18.2009 1.95388 17.823 2.12643 17.5133L8.06493 6.85443C8.06516 6.85402 8.06538 6.85362 8.06561 6.85321C8.20496 6.60251 8.40763 6.38775 8.65892 6.23555Z" fill="#292929"/>
<path fill-rule="evenodd" clip-rule="evenodd" d="M6 12C6 11.4477 6.44772 11 7 11L12 11C12.5523 11 13 11.4477 13 12C13 12.5523 12.5523 13 12 13L7 13C6.44772 13 6 12.5523 6 12Z" fill="#292929"/>
<path fill-rule="evenodd" clip-rule="evenodd" d="M17.7575 11.6281L15.8977 15.4164C15.6543 15.9122 15.0551 16.1168 14.5593 15.8734C14.0635 15.63 13.859 15.0308 14.1023 14.5351L16.3848 9.88579C16.5019 9.64769 16.6797 9.42685 16.9177 9.26323C17.1581 9.09802 17.448 9 17.7575 9C18.0669 9 18.3568 9.09803 18.5972 9.26323C18.8353 9.42685 19.0129 9.64722 19.1299 9.88532L22.8976 17.5593C23.0498 17.8692 23.0313 18.2357 22.8487 18.5288C22.6661 18.8219 22.3453 19 22 19H16.4768C15.9245 19 15.4768 18.5523 15.4768 18C15.4768 17.4477 15.9245 17 16.4768 17H20.395L17.7575 11.6281Z" fill="#292929"/>
</svg>
