<svg width="24" height="24" viewBox="0 0 24 24" fill="none" xmlns="http://www.w3.org/2000/svg">
<path d="M12 2C10.0222 2 8.08879 2.58649 6.4443 3.6853C4.79981 4.78412 3.51809 6.3459 2.76121 8.17316C2.00433 10.0004 1.8063 12.0111 2.19215 13.9509C2.578 15.8907 3.53041 17.6725 4.92894 19.0711C6.32746 20.4696 8.10929 21.422 10.0491 21.8078C11.9889 22.1937 13.9996 21.9957 15.8268 21.2388C17.6541 20.4819 19.2159 19.2002 20.3147 17.5557C21.4135 15.9112 22 13.9778 22 12C21.9972 9.34869 20.9427 6.80678 19.068 4.93202C17.1932 3.05727 14.6513 2.0028 12 2ZM12 18.1538C11.7718 18.1538 11.5487 18.0862 11.359 17.9594C11.1692 17.8326 11.0213 17.6524 10.934 17.4416C10.8467 17.2307 10.8238 16.9987 10.8683 16.7749C10.9128 16.5511 11.0227 16.3455 11.1841 16.1841C11.3455 16.0227 11.5511 15.9128 11.7749 15.8683C11.9987 15.8238 12.2307 15.8467 12.4416 15.934C12.6524 16.0213 12.8326 16.1692 12.9594 16.359C13.0862 16.5487 13.1538 16.7718 13.1538 17C13.1538 17.306 13.0323 17.5995 12.8159 17.8159C12.5995 18.0323 12.306 18.1538 12 18.1538ZM12.7692 13.4692V13.5385C12.7692 13.7425 12.6882 13.9381 12.5439 14.0824C12.3997 14.2266 12.204 14.3077 12 14.3077C11.796 14.3077 11.6003 14.2266 11.4561 14.0824C11.3118 13.9381 11.2308 13.7425 11.2308 13.5385V12.7692C11.2308 12.5652 11.3118 12.3696 11.4561 12.2253C11.6003 12.081 11.796 12 12 12C13.2721 12 14.3077 11.1346 14.3077 10.0769C14.3077 9.01923 13.2721 8.15384 12 8.15384C10.7279 8.15384 9.69231 9.01923 9.69231 10.0769V10.4615C9.69231 10.6655 9.61127 10.8612 9.46701 11.0055C9.32275 11.1497 9.12709 11.2308 8.92308 11.2308C8.71907 11.2308 8.52341 11.1497 8.37915 11.0055C8.23489 10.8612 8.15385 10.6655 8.15385 10.4615V10.0769C8.15385 8.16827 9.87885 6.61538 12 6.61538C14.1212 6.61538 15.8462 8.16827 15.8462 10.0769C15.8462 11.7481 14.5231 13.1471 12.7692 13.4692Z" fill="#292929"/>
</svg>
