<svg width="24" height="24" viewBox="0 0 24 24" fill="none" xmlns="http://www.w3.org/2000/svg">
<path d="M12 18C12.6213 18 13.125 17.4963 13.125 16.875C13.125 16.2537 12.6213 15.75 12 15.75C11.3787 15.75 10.875 16.2537 10.875 16.875C10.875 17.4963 11.3787 18 12 18Z" fill="#292929"/>
<path fill-rule="evenodd" clip-rule="evenodd" d="M8 10.125C8 8.00211 9.92073 6.5 12 6.5C14.0793 6.5 16 8.00211 16 10.125C16 11.9039 14.6514 13.2468 12.9909 13.6354C12.9248 14.1236 12.5064 14.5 12 14.5C11.4477 14.5 11 14.0523 11 13.5V12.75C11 12.1977 11.4477 11.75 12 11.75C13.2339 11.75 14 10.9009 14 10.125C14 9.34914 13.2339 8.5 12 8.5C10.7661 8.5 10 9.34914 10 10.125V10.5C10 11.0523 9.55228 11.5 9 11.5C8.44772 11.5 8 11.0523 8 10.5V10.125Z" fill="#292929"/>
<path fill-rule="evenodd" clip-rule="evenodd" d="M12 4C7.58172 4 4 7.58172 4 12C4 16.4183 7.58172 20 12 20C16.4183 20 20 16.4183 20 12C20 7.58172 16.4183 4 12 4ZM2 12C2 6.47715 6.47715 2 12 2C17.5228 2 22 6.47715 22 12C22 17.5228 17.5228 22 12 22C6.47715 22 2 17.5228 2 12Z" fill="#292929"/>
</svg>
