<svg width="24" height="24" viewBox="0 0 24 24" fill="none" xmlns="http://www.w3.org/2000/svg">
<path fill-rule="evenodd" clip-rule="evenodd" d="M12 4C7.58172 4 4 7.58172 4 12C4 16.4183 7.58172 20 12 20C16.4183 20 20 16.4183 20 12C20 7.58172 16.4183 4 12 4ZM2 12C2 6.47715 6.47715 2 12 2C17.5228 2 22 6.47715 22 12C22 17.5228 17.5228 22 12 22C6.47715 22 2 17.5228 2 12Z" fill="#292929"/>
<path fill-rule="evenodd" clip-rule="evenodd" d="M12 8.5C10.4812 8.5 9.25 9.73122 9.25 11.25C9.25 12.7688 10.4812 14 12 14C13.5188 14 14.75 12.7688 14.75 11.25C14.75 9.73122 13.5188 8.5 12 8.5ZM7.25 11.25C7.25 8.62665 9.37665 6.5 12 6.5C14.6234 6.5 16.75 8.62665 16.75 11.25C16.75 13.8734 14.6234 16 12 16C9.37665 16 7.25 13.8734 7.25 11.25Z" fill="#292929"/>
<path fill-rule="evenodd" clip-rule="evenodd" d="M12 15.9966C10.9381 15.9966 9.89704 16.2906 8.99206 16.8461C8.08709 17.4016 7.35361 18.1968 6.87292 19.1436C6.6229 19.6361 6.02101 19.8326 5.52856 19.5826C5.0361 19.3326 4.83957 18.7307 5.08958 18.2382C5.73747 16.9621 6.72608 15.8903 7.94583 15.1416C9.16557 14.3929 10.5688 13.9966 12 13.9966C13.4312 13.9966 14.8344 14.3929 16.0542 15.1416C17.2739 15.8903 18.2625 16.9621 18.9104 18.2382C19.1604 18.7307 18.9639 19.3326 18.4714 19.5826C17.979 19.8326 17.3771 19.6361 17.1271 19.1436C16.6464 18.1968 15.9129 17.4016 15.0079 16.8461C14.103 16.2906 13.0619 15.9966 12 15.9966Z" fill="#292929"/>
</svg>
