<svg width="24" height="24" viewBox="0 0 24 24" fill="none" xmlns="http://www.w3.org/2000/svg">
<path d="M16.2308 11.2308C16.2308 12.0675 15.9826 12.8855 15.5178 13.5813C15.0529 14.277 14.3921 14.8193 13.619 15.1395C12.846 15.4597 11.9953 15.5435 11.1746 15.3802C10.3539 15.217 9.60008 14.8141 9.0084 14.2224C8.41671 13.6307 8.01377 12.8768 7.85053 12.0561C7.68728 11.2355 7.77107 10.3848 8.09128 9.61172C8.4115 8.83865 8.95377 8.17789 9.64951 7.71301C10.3453 7.24813 11.1632 7 12 7C13.1217 7.00127 14.1971 7.44742 14.9902 8.24057C15.7833 9.03371 16.2295 10.1091 16.2308 11.2308ZM22 12C22 13.9778 21.4135 15.9112 20.3147 17.5557C19.2159 19.2002 17.6541 20.4819 15.8268 21.2388C13.9996 21.9957 11.9889 22.1937 10.0491 21.8078C8.10929 21.422 6.32746 20.4696 4.92894 19.0711C3.53041 17.6725 2.578 15.8907 2.19215 13.9509C1.8063 12.0111 2.00433 10.0004 2.76121 8.17316C3.51809 6.3459 4.79981 4.78412 6.4443 3.6853C8.08879 2.58649 10.0222 2 12 2C14.6513 2.0028 17.1932 3.05727 19.068 4.93202C20.9427 6.80678 21.9972 9.34869 22 12ZM20.4615 12C20.4603 10.8611 20.2294 9.73412 19.7826 8.6865C19.3359 7.63887 18.6824 6.69211 17.8614 5.90282C17.0403 5.11353 16.0685 4.49794 15.0041 4.09285C13.9396 3.68776 12.8044 3.50149 11.6663 3.54519C7.1375 3.72019 3.52597 7.49231 3.53847 12.024C3.54281 14.087 4.30368 16.0768 5.67693 17.6163C6.23618 16.8052 6.94658 16.1095 7.76923 15.5673C7.83937 15.521 7.92276 15.4989 8.00663 15.5045C8.0905 15.51 8.17024 15.5429 8.23366 15.5981C9.27902 16.5023 10.615 16.9999 11.9971 16.9999C13.3793 16.9999 14.7152 16.5023 15.7606 15.5981C15.824 15.5429 15.9037 15.51 15.9876 15.5045C16.0715 15.4989 16.1549 15.521 16.225 15.5673C17.0487 16.1092 17.7601 16.8049 18.3202 17.6163C19.7002 16.0712 20.4626 14.0717 20.4615 12Z" fill="#292929"/>
</svg>
