<svg width="24" height="24" viewBox="0 0 24 24" fill="none" xmlns="http://www.w3.org/2000/svg">
<path d="M12 2C10.0222 2 8.08879 2.58649 6.4443 3.6853C4.79981 4.78412 3.51809 6.3459 2.76121 8.17316C2.00433 10.0004 1.8063 12.0111 2.19215 13.9509C2.578 15.8907 3.53041 17.6725 4.92894 19.0711C6.32746 20.4696 8.10929 21.422 10.0491 21.8078C11.9889 22.1937 13.9996 21.9957 15.8268 21.2388C17.6541 20.4819 19.2159 19.2002 20.3147 17.5557C21.4135 15.9112 22 13.9778 22 12C21.9972 9.34869 20.9427 6.80678 19.068 4.93202C17.1932 3.05727 14.6513 2.0028 12 2ZM15.6212 14.5327C15.6926 14.6042 15.7493 14.689 15.788 14.7824C15.8267 14.8758 15.8466 14.9758 15.8466 15.0769C15.8466 15.178 15.8267 15.2781 15.788 15.3715C15.7493 15.4648 15.6926 15.5497 15.6212 15.6212C15.5497 15.6926 15.4648 15.7493 15.3715 15.788C15.2781 15.8267 15.178 15.8466 15.0769 15.8466C14.9759 15.8466 14.8758 15.8267 14.7824 15.788C14.689 15.7493 14.6042 15.6926 14.5327 15.6212L12 13.0875L9.46731 15.6212C9.39584 15.6926 9.31099 15.7493 9.21762 15.788C9.12424 15.8267 9.02415 15.8466 8.92308 15.8466C8.82201 15.8466 8.72192 15.8267 8.62854 15.788C8.53517 15.7493 8.45032 15.6926 8.37885 15.6212C8.30738 15.5497 8.25069 15.4648 8.21201 15.3715C8.17333 15.2781 8.15342 15.178 8.15342 15.0769C8.15342 14.9758 8.17333 14.8758 8.21201 14.7824C8.25069 14.689 8.30738 14.6042 8.37885 14.5327L10.9125 12L8.37885 9.46731C8.23451 9.32297 8.15342 9.1272 8.15342 8.92308C8.15342 8.71895 8.23451 8.52318 8.37885 8.37884C8.52319 8.23451 8.71895 8.15342 8.92308 8.15342C9.12721 8.15342 9.32297 8.23451 9.46731 8.37884L12 10.9125L14.5327 8.37884C14.6042 8.30737 14.689 8.25068 14.7824 8.212C14.8758 8.17332 14.9759 8.15342 15.0769 8.15342C15.178 8.15342 15.2781 8.17332 15.3715 8.212C15.4648 8.25068 15.5497 8.30737 15.6212 8.37884C15.6926 8.45031 15.7493 8.53516 15.788 8.62854C15.8267 8.72192 15.8466 8.822 15.8466 8.92308C15.8466 9.02415 15.8267 9.12423 15.788 9.21761C15.7493 9.31099 15.6926 9.39584 15.6212 9.46731L13.0875 12L15.6212 14.5327Z" fill="black"/>
</svg>
