<svg width="24" height="24" viewBox="0 0 24 24" fill="none" xmlns="http://www.w3.org/2000/svg">
<path fill-rule="evenodd" clip-rule="evenodd" d="M16.4571 9.04289C16.8476 9.43342 16.8476 10.0666 16.4571 10.4571L11.2071 15.7071C10.8166 16.0976 10.1834 16.0976 9.79289 15.7071L7.54289 13.4571C7.15237 13.0666 7.15237 12.4334 7.54289 12.0429C7.93342 11.6524 8.56658 11.6524 8.95711 12.0429L10.5 13.5858L15.0429 9.04289C15.4334 8.65237 16.0666 8.65237 16.4571 9.04289Z" fill="#292929"/>
<path fill-rule="evenodd" clip-rule="evenodd" d="M12 4C7.58172 4 4 7.58172 4 12C4 16.4183 7.58172 20 12 20C16.4183 20 20 16.4183 20 12C20 7.58172 16.4183 4 12 4ZM2 12C2 6.47715 6.47715 2 12 2C17.5228 2 22 6.47715 22 12C22 17.5228 17.5228 22 12 22C6.47715 22 2 17.5228 2 12Z" fill="#292929"/>
</svg>
