<svg width="24" height="24" viewBox="0 0 24 24" fill="none" xmlns="http://www.w3.org/2000/svg">
<path fill-rule="evenodd" clip-rule="evenodd" d="M15.846 4.09L4 15.936V20H8.06394L19.9099 8.15119L15.846 4.09ZM14.5859 2.5217C14.9201 2.18765 15.3734 2 15.8459 2C16.3185 2 16.7717 2.18765 17.106 2.52169V2.52169L21.4778 6.89058C21.8119 7.22484 22 7.67855 22 8.15112C22 8.6237 21.8124 9.07693 21.4783 9.4112L9.18541 21.707C8.99787 21.8946 8.74348 22 8.47822 22H3.7826C3.30983 22 2.85642 21.8122 2.52211 21.4779C2.18781 21.1436 2 20.6902 2 20.2174V15.8456C2.00022 15.3734 2.18774 14.9202 2.52141 14.5862L14.5859 2.5217Z" fill="#292929"/>
<path fill-rule="evenodd" clip-rule="evenodd" d="M7 21C7 20.4477 7.44772 20 8 20H20C20.5523 20 21 20.4477 21 21C21 21.5523 20.5523 22 20 22H8C7.44772 22 7 21.5523 7 21Z" fill="#292929"/>
<path fill-rule="evenodd" clip-rule="evenodd" d="M12.0429 5.29289C12.4334 4.90237 13.0666 4.90237 13.4571 5.29289L18.7071 10.5429C19.0976 10.9334 19.0976 11.5666 18.7071 11.9571C18.3166 12.3476 17.6834 12.3476 17.2929 11.9571L12.0429 6.70711C11.6524 6.31658 11.6524 5.68342 12.0429 5.29289Z" fill="#292929"/>
</svg>
