<svg width="24" height="24" viewBox="0 0 24 24" fill="none" xmlns="http://www.w3.org/2000/svg">
<path fill-rule="evenodd" clip-rule="evenodd" d="M12.4839 4.26898C12.2778 3.91034 11.7221 3.91034 11.516 4.26898L3.31733 18.5055C3.14678 18.8046 3.34262 19.25 3.80057 19.25H20.1993C20.6573 19.25 20.8535 18.8054 20.683 18.5063L12.4839 4.26898ZM14.2175 3.27158C13.2422 1.57614 10.7577 1.57614 9.78244 3.27158ZM9.78244 3.27158L1.58306 17.5094L1.58194 17.5113C0.603889 19.2185 1.89267 21.25 3.80057 21.25H20.1993C22.1072 21.25 23.396 19.2185 22.418 17.5113L14.2175 3.27158" fill="#292929"/>
<path fill-rule="evenodd" clip-rule="evenodd" d="M11.9999 8.75C12.5522 8.75 12.9999 9.19772 12.9999 9.75V13.5C12.9999 14.0523 12.5522 14.5 11.9999 14.5C11.4477 14.5 10.9999 14.0523 10.9999 13.5V9.75C10.9999 9.19772 11.4477 8.75 11.9999 8.75Z" fill="#292929"/>
<path d="M11.9999 18C12.6213 18 13.1249 17.4963 13.1249 16.875C13.1249 16.2537 12.6213 15.75 11.9999 15.75C11.3786 15.75 10.8749 16.2537 10.8749 16.875C10.8749 17.4963 11.3786 18 11.9999 18Z" fill="#292929"/>
</svg>
