<svg width="24" height="24" viewBox="0 0 24 24" fill="none" xmlns="http://www.w3.org/2000/svg">
<path fill-rule="evenodd" clip-rule="evenodd" d="M12 9.99998C10.8955 9.99998 10 10.8954 10 12C10 13.1046 10.8955 14 12 14C13.1046 14 14 13.1046 14 12C14 10.8954 13.1046 9.99998 12 9.99998ZM8.00002 12C8.00002 9.79084 9.79088 7.99998 12 7.99998C14.2092 7.99998 16 9.79084 16 12C16 14.2091 14.2092 16 12 16C9.79088 16 8.00002 14.2091 8.00002 12Z" fill="#292929"/>
<path fill-rule="evenodd" clip-rule="evenodd" d="M16.3644 6.75512C16.7757 6.38663 17.4079 6.42138 17.7764 6.83276C19.0488 8.25315 19.7524 10.093 19.7524 12C19.7524 13.9069 19.0488 15.7468 17.7764 17.1672C17.4079 17.5786 16.7757 17.6133 16.3644 17.2448C15.953 16.8763 15.9182 16.2441 16.2867 15.8328C17.2305 14.7792 17.7524 13.4144 17.7524 12C17.7524 10.5855 17.2305 9.22078 16.2867 8.1672C15.9182 7.75583 15.953 7.12362 16.3644 6.75512Z" fill="#292929"/>
<path fill-rule="evenodd" clip-rule="evenodd" d="M7.63568 6.75512C8.04705 7.12362 8.08181 7.75583 7.71332 8.1672C6.76955 9.22078 6.24769 10.5855 6.24769 12C6.24769 13.4144 6.76955 14.7792 7.71332 15.8328C8.08181 16.2441 8.04705 16.8763 7.63568 17.2448C7.22431 17.6133 6.5921 17.5786 6.2236 17.1672C4.95125 15.7468 4.24769 13.9069 4.24769 12C4.24769 10.093 4.95125 8.25315 6.2236 6.83276C6.5921 6.42138 7.22431 6.38663 7.63568 6.75512Z" fill="#292929"/>
<path fill-rule="evenodd" clip-rule="evenodd" d="M18.7994 3.93827C19.1935 3.55136 19.8267 3.55718 20.2136 3.95128C22.3226 6.09945 23.5042 8.98958 23.5042 12C23.5042 15.0104 22.3226 17.9005 20.2136 20.0487C19.8267 20.4428 19.1935 20.4486 18.7994 20.0617C18.4053 19.6748 18.3995 19.0416 18.7864 18.6475C20.5283 16.8733 21.5042 14.4863 21.5042 12C21.5042 9.51364 20.5283 7.12663 18.7864 5.35243C18.3995 4.95833 18.4053 4.32519 18.7994 3.93827Z" fill="#292929"/>
<path fill-rule="evenodd" clip-rule="evenodd" d="M5.20059 3.93827C5.59469 4.32519 5.60052 4.95833 5.2136 5.35243C3.47174 7.12663 2.49585 9.51364 2.49585 12C2.49585 14.4863 3.47174 16.8733 5.2136 18.6475C5.60052 19.0416 5.59469 19.6748 5.20059 20.0617C4.80649 20.4486 4.17335 20.4428 3.78644 20.0487C1.67744 17.9005 0.49585 15.0104 0.49585 12C0.49585 8.98958 1.67744 6.09945 3.78644 3.95128C4.17335 3.55718 4.80649 3.55136 5.20059 3.93827Z" fill="#292929"/>
</svg>
