<svg width="24" height="24" viewBox="0 0 24 24" fill="none" xmlns="http://www.w3.org/2000/svg">
<path fill-rule="evenodd" clip-rule="evenodd" d="M15 3.5C15.5523 3.5 16 3.94772 16 4.5V8H19.5C20.0523 8 20.5 8.44772 20.5 9C20.5 9.55228 20.0523 10 19.5 10H15C14.4477 10 14 9.55228 14 9V4.5C14 3.94772 14.4477 3.5 15 3.5Z" fill="#292929"/>
<path fill-rule="evenodd" clip-rule="evenodd" d="M3.5 15C3.5 14.4477 3.94772 14 4.5 14H9C9.55228 14 10 14.4477 10 15V19.5C10 20.0523 9.55228 20.5 9 20.5C8.44772 20.5 8 20.0523 8 19.5V16H4.5C3.94772 16 3.5 15.5523 3.5 15Z" fill="#292929"/>
<path fill-rule="evenodd" clip-rule="evenodd" d="M14 15C14 14.4477 14.4477 14 15 14H19.5C20.0523 14 20.5 14.4477 20.5 15C20.5 15.5523 20.0523 16 19.5 16H16V19.5C16 20.0523 15.5523 20.5 15 20.5C14.4477 20.5 14 20.0523 14 19.5V15Z" fill="#292929"/>
<path fill-rule="evenodd" clip-rule="evenodd" d="M9 3.5C9.55228 3.5 10 3.94772 10 4.5V9C10 9.55228 9.55228 10 9 10H4.5C3.94772 10 3.5 9.55228 3.5 9C3.5 8.44772 3.94772 8 4.5 8H8V4.5C8 3.94772 8.44772 3.5 9 3.5Z" fill="#292929"/>
</svg>
