<svg width="24" height="24" viewBox="0 0 24 24" fill="none" xmlns="http://www.w3.org/2000/svg">
<path fill-rule="evenodd" clip-rule="evenodd" d="M12 4C10.9919 4 10 4.94296 10 6.33333V11.6667C10 13.057 10.9919 14 12 14C13.0081 14 14 13.057 14 11.6667V6.33333C14 4.94296 13.0081 4 12 4ZM8 6.33333C8 4.04181 9.69436 2 12 2C14.3056 2 16 4.04181 16 6.33333V11.6667C16 13.9582 14.3056 16 12 16C9.69436 16 8 13.9582 8 11.6667V6.33333Z" fill="#292929"/>
<path fill-rule="evenodd" clip-rule="evenodd" d="M12 17C12.5523 17 13 17.4477 13 18V22C13 22.5523 12.5523 23 12 23C11.4477 23 11 22.5523 11 22V18C11 17.4477 11.4477 17 12 17Z" fill="#292929"/>
<path fill-rule="evenodd" clip-rule="evenodd" d="M6 11C6.55228 11 7 11.4477 7 12C7 13.3261 7.52678 14.5979 8.46447 15.5355C9.40215 16.4732 10.6739 17 12 17C13.3261 17 14.5979 16.4732 15.5355 15.5355C16.4732 14.5979 17 13.3261 17 12C17 11.4477 17.4477 11 18 11C18.5523 11 19 11.4477 19 12C19 13.8565 18.2625 15.637 16.9497 16.9497C15.637 18.2625 13.8565 19 12 19C10.1435 19 8.36301 18.2625 7.05025 16.9497C5.7375 15.637 5 13.8565 5 12C5 11.4477 5.44772 11 6 11Z" fill="#292929"/>
</svg>
