<svg width="24" height="24" viewBox="0 0 24 24" fill="none" xmlns="http://www.w3.org/2000/svg">
<g clip-path="url(#clip0_2039_80056)">
<path d="M18.5748 19.017C18.6668 19.1264 18.7256 19.2598 18.7443 19.4014C18.7631 19.5431 18.741 19.6872 18.6806 19.8167C18.6202 19.9463 18.5241 20.0558 18.4035 20.1326C18.283 20.2093 18.143 20.25 18.0001 20.2498H2.25007C2.10724 20.2498 1.96738 20.209 1.84696 20.1322C1.72653 20.0554 1.63054 19.9458 1.57028 19.8163C1.51001 19.6868 1.48797 19.5428 1.50676 19.4012C1.52554 19.2596 1.58437 19.1263 1.67632 19.017C3.07694 17.3502 4.81882 16.1661 6.75476 15.5323C5.57904 14.8001 4.67381 13.7048 4.17601 12.4122C3.67821 11.1197 3.61493 9.70013 3.99574 8.36839C4.37655 7.03666 5.18074 5.86518 6.28663 5.0312C7.39253 4.19721 8.73996 3.74609 10.1251 3.74609C11.5102 3.74609 12.8576 4.19721 13.9635 5.0312C15.0694 5.86518 15.8736 7.03666 16.2544 8.36839C16.6352 9.70013 16.5719 11.1197 16.0741 12.4122C15.5763 13.7048 14.6711 14.8001 13.4954 15.5323C15.4313 16.1661 17.1732 17.3502 18.5748 19.017ZM18.4557 5.75516C18.3651 5.7938 18.2829 5.84991 18.214 5.9203C18.1451 5.99069 18.0907 6.07397 18.0539 6.16538C18.0172 6.25679 17.9988 6.35455 17.9999 6.45306C18.0009 6.55158 18.0214 6.64892 18.0601 6.73953C18.5154 7.81008 18.7501 8.96148 18.7501 10.1248C18.7501 11.2882 18.5154 12.4396 18.0601 13.5102C17.9819 13.6932 17.9796 13.8997 18.0537 14.0844C18.1278 14.2691 18.2722 14.4168 18.4552 14.495C18.6382 14.5732 18.8448 14.5755 19.0295 14.5014C19.2142 14.4273 19.3619 14.2828 19.4401 14.0998C19.9746 12.8428 20.25 11.4908 20.25 10.1248C20.25 8.75886 19.9746 7.40691 19.4401 6.14984C19.3619 5.96698 19.2142 5.82267 19.0296 5.74866C18.845 5.67464 18.6386 5.67698 18.4557 5.75516ZM22.1916 4.95453C22.1548 4.86118 22.0997 4.77617 22.0294 4.70453C21.9592 4.63288 21.8752 4.57606 21.7826 4.53744C21.69 4.49881 21.5906 4.47916 21.4903 4.47964C21.3899 4.48013 21.2907 4.50075 21.1985 4.54028C21.1062 4.5798 21.0229 4.63743 20.9533 4.70976C20.8838 4.78208 20.8294 4.86763 20.7935 4.96133C20.7576 5.05503 20.7409 5.15498 20.7443 5.25527C20.7478 5.35555 20.7713 5.45413 20.8135 5.54516C21.4315 6.99289 21.7501 8.55073 21.7501 10.1248C21.7501 11.699 21.4315 13.2568 20.8135 14.7045C20.7713 14.7956 20.7478 14.8941 20.7443 14.9944C20.7409 15.0947 20.7576 15.1947 20.7935 15.2884C20.8294 15.3821 20.8838 15.4676 20.9533 15.5399C21.0229 15.6123 21.1062 15.6699 21.1985 15.7094C21.2907 15.7489 21.3899 15.7696 21.4903 15.77C21.5906 15.7705 21.69 15.7509 21.7826 15.7123C21.8752 15.6736 21.9592 15.6168 22.0294 15.5452C22.0997 15.4735 22.1548 15.3885 22.1916 15.2952C22.89 13.6609 23.2501 11.9021 23.2501 10.1248C23.2501 8.3476 22.89 6.58879 22.1916 4.95453Z" fill="#0B4E6F"/>
</g>
<defs>
<clipPath id="clip0_2039_80056">
<rect width="24" height="24" fill="white"/>
</clipPath>
</defs>
</svg>
