<svg width="24" height="24" viewBox="0 0 24 24" fill="none" xmlns="http://www.w3.org/2000/svg">
<path fill-rule="evenodd" clip-rule="evenodd" d="M4 11H7C7.55228 11 8 10.5523 8 10C8 9.44772 7.55228 9 7 9H3.9C3.43664 9 2.96944 9.15948 2.60595 9.47681C2.23813 9.79792 2 10.2649 2 10.7857V20.2143C2 20.7351 2.23813 21.2021 2.60595 21.5232C2.96944 21.8405 3.43664 22 3.9 22H20.1C20.5634 22 21.0306 21.8405 21.3941 21.5232C21.7619 21.2021 22 20.7351 22 20.2143V10.7857C22 10.2649 21.7619 9.79792 21.3941 9.47681C21.0306 9.15948 20.5634 9 20.1 9H17C16.4477 9 16 9.44772 16 10C16 10.5523 16.4477 11 17 11H20V20H4V11Z" fill="#292929"/>
<path fill-rule="evenodd" clip-rule="evenodd" d="M11.2929 1.54289C11.6834 1.15237 12.3166 1.15237 12.7071 1.54289L16.4571 5.29289C16.8476 5.68342 16.8476 6.31658 16.4571 6.70711C16.0666 7.09763 15.4334 7.09763 15.0429 6.70711L12 3.66421L8.95711 6.70711C8.56658 7.09763 7.93342 7.09763 7.54289 6.70711C7.15237 6.31658 7.15237 5.68342 7.54289 5.29289L11.2929 1.54289Z" fill="#292929"/>
<path fill-rule="evenodd" clip-rule="evenodd" d="M12 1.25C12.5523 1.25 13 1.69772 13 2.25V12.75C13 13.3023 12.5523 13.75 12 13.75C11.4477 13.75 11 13.3023 11 12.75V2.25C11 1.69772 11.4477 1.25 12 1.25Z" fill="#292929"/>
</svg>
