<svg width="24" height="24" viewBox="0 0 24 24" fill="none" xmlns="http://www.w3.org/2000/svg">
<path d="M21.4959 11.1532L17.4757 14.7491L18.7005 20.1269C18.7681 20.4188 18.7507 20.7249 18.6505 21.0066C18.5503 21.2883 18.3718 21.5329 18.1376 21.7095C17.9034 21.8861 17.624 21.9867 17.3346 21.9988C17.0452 22.0108 16.7588 21.9337 16.5117 21.7771L12.0002 18.8989L7.48595 21.7771C7.23886 21.9328 6.95287 22.0092 6.66399 21.9967C6.3751 21.9842 6.09623 21.8834 5.8625 21.707C5.62878 21.5305 5.45064 21.2863 5.35051 21.0052C5.25039 20.724 5.23277 20.4184 5.29985 20.1269L6.52914 14.7491L2.50895 11.1532C2.29033 10.9573 2.13223 10.6991 2.05438 10.4106C1.97653 10.1222 1.98238 9.81634 2.0712 9.53133C2.16003 9.24631 2.32789 8.99474 2.55382 8.80802C2.77975 8.62131 3.05374 8.50773 3.34157 8.48147L8.6125 8.04065L10.6458 2.93984C10.7559 2.66185 10.9432 2.42406 11.184 2.25671C11.4247 2.08936 11.7081 2 11.9979 2C12.2878 2 12.5712 2.08936 12.8119 2.25671C13.0527 2.42406 13.24 2.66185 13.3501 2.93984L15.3825 8.04065L20.6534 8.48147C20.9418 8.50675 21.2166 8.6197 21.4434 8.80615C21.6701 8.99261 21.8388 9.24429 21.9281 9.52965C22.0175 9.81501 22.0237 10.1214 21.9458 10.4103C21.868 10.6993 21.7096 10.958 21.4905 11.1541L21.4959 11.1532Z" fill="#EBFB14"/>
</svg>
