  <svg xmlns="http://www.w3.org/2000/svg" width="20" height="20" viewBox="0 0 20 20" fill="#0B4E6F" >
    <path d="M17.9133 9.29429L14.5631 12.2909L15.5838 16.7723C15.6401 17.0156 15.6256 17.2707 15.5421 17.5055C15.4586 17.7402 15.3099 17.944 15.1147 18.0912C14.9196 18.2383 14.6867 18.3222 14.4455 18.3323C14.2044 18.3423 13.9658 18.278 13.7598 18.1476L10.0002 15.749L6.23834 18.1476C6.03244 18.2773 5.79411 18.3409 5.55337 18.3305C5.31263 18.3201 5.08025 18.2361 4.88547 18.0891C4.6907 17.9421 4.54225 17.7386 4.45881 17.5043C4.37538 17.27 4.36069 17.0153 4.4166 16.7723L5.441 12.2909L2.09084 9.29429C1.90866 9.13107 1.77691 8.91584 1.71203 8.67547C1.64716 8.4351 1.65203 8.18025 1.72605 7.94273C1.80007 7.70522 1.93996 7.49557 2.12823 7.33998C2.31651 7.18438 2.54483 7.08973 2.7847 7.06785L7.17713 6.70051L8.87157 2.44982C8.96328 2.21816 9.11938 2.02001 9.32002 1.88055C9.52066 1.74109 9.75677 1.66663 9.99834 1.66663C10.2399 1.66663 10.476 1.74109 10.6767 1.88055C10.8773 2.02001 11.0334 2.21816 11.1251 2.44982L12.8188 6.70051L17.2112 7.06785C17.4516 7.08892 17.6806 7.18304 17.8695 7.33842C18.0585 7.4938 18.199 7.70353 18.2735 7.94133C18.348 8.17913 18.3531 8.43443 18.2882 8.67524C18.2234 8.91605 18.0914 9.13166 17.9088 9.29506L17.9133 9.29429Z" />
</svg>