<svg width="24" height="24" viewBox="0 0 24 24" fill="none" xmlns="http://www.w3.org/2000/svg">
<path fill-rule="evenodd" clip-rule="evenodd" d="M12 9.24995C10.4812 9.24995 9.24995 10.4812 9.24995 12C9.24995 13.5187 10.4812 14.75 12 14.75C13.5187 14.75 14.75 13.5187 14.75 12C14.75 10.4812 13.5187 9.24995 12 9.24995ZM7.24995 12C7.24995 9.3766 9.3766 7.24995 12 7.24995C14.6233 7.24995 16.75 9.3766 16.75 12C16.75 14.6233 14.6233 16.75 12 16.75C9.3766 16.75 7.24995 14.6233 7.24995 12Z" fill="#fff"/>
<path fill-rule="evenodd" clip-rule="evenodd" d="M9.32613 1.97303C9.63211 1.89231 9.95823 1.96118 10.2054 2.15872L11.8847 3.50051C11.9628 3.49945 12.041 3.49945 12.1191 3.50051L13.7984 2.15948C14.0461 1.96172 14.3728 1.89305 14.6791 1.97438C15.5624 2.20892 16.4107 2.55974 17.2016 3.01764C17.4761 3.17656 17.6589 3.45627 17.6943 3.77146L17.9342 5.90747C17.9902 5.96195 18.0455 6.01719 18.0999 6.07318L20.235 6.31308C20.5498 6.34845 20.8292 6.53083 20.9882 6.80474C21.4472 7.59531 21.7988 8.4435 22.0338 9.32693C22.1154 9.63345 22.0467 9.96047 21.8487 10.2083L20.5069 11.8875C20.5079 11.9656 20.5079 12.0438 20.5069 12.122L21.8479 13.8012C22.0453 14.0484 22.1141 14.3744 22.0334 14.6803C21.8005 15.5633 21.4515 16.4116 20.9954 17.2028C20.8366 17.4782 20.5565 17.6617 20.2406 17.6971L18.1046 17.9371C18.0501 17.993 17.9949 18.0483 17.9389 18.1028L17.699 20.2379C17.6636 20.5526 17.4813 20.832 17.2074 20.991C16.4168 21.45 15.5686 21.8016 14.6852 22.0367C14.3786 22.1182 14.0516 22.0495 13.8038 21.8515L12.1246 20.5097C12.0464 20.5108 11.9683 20.5108 11.8901 20.5097L10.2108 21.8507C9.96366 22.0481 9.63767 22.1169 9.3318 22.0363C8.44874 21.8034 7.6005 21.4543 6.80928 20.9982C6.53393 20.8395 6.35042 20.5593 6.31495 20.2434L6.07504 18.1074C6.01839 18.0523 5.96251 17.9964 5.90741 17.9397L3.76767 17.6891C3.45474 17.6524 3.17739 17.4705 3.0192 17.198C2.56021 16.4074 2.20857 15.5592 1.97356 14.6758C1.89202 14.3693 1.96073 14.0422 2.15872 13.7945L3.50051 12.1152C3.49945 12.0371 3.49945 11.9589 3.50051 11.8808L2.15948 10.2015C1.96172 9.95383 1.89305 9.62712 1.97438 9.32082C2.20892 8.4375 2.55974 7.58925 3.01764 6.7983C3.17656 6.52381 3.45627 6.34098 3.77146 6.30558L5.90747 6.06566C5.96195 6.00968 6.01719 5.95444 6.07318 5.89996L6.31308 3.76486C6.34855 3.44917 6.5319 3.16912 6.80705 3.01036C7.59708 2.55451 8.44419 2.20568 9.32613 1.97303ZM8.24212 4.50839L8.01932 6.4913C7.99173 6.73685 7.8742 6.9635 7.6894 7.12753C7.49378 7.30116 7.30866 7.48628 7.13503 7.6819C6.97099 7.86671 6.74433 7.98425 6.49875 8.01183L4.51394 8.23476C4.33131 8.59839 4.17559 8.97493 4.04804 9.36134L5.29449 10.9222C5.44868 11.1153 5.52593 11.3586 5.51133 11.6053C5.49585 11.8669 5.49585 12.1292 5.51133 12.3909C5.52593 12.6376 5.44862 12.8811 5.29431 13.0742L4.04739 14.6347C4.17547 15.0218 4.33192 15.3989 4.51546 15.763L6.50536 15.9961C6.74917 16.0247 6.97396 16.1419 7.13691 16.3255C7.31054 16.5211 7.49565 16.7062 7.69127 16.8799C7.87609 17.0439 7.99362 17.2706 8.0212 17.5161L8.244 19.4997C8.60747 19.6814 8.98377 19.8362 9.36986 19.9629L10.9316 18.7157C11.1246 18.5615 11.368 18.4843 11.6147 18.4989C11.8763 18.5144 12.1386 18.5144 12.4003 18.4989C12.647 18.4843 12.8904 18.5616 13.0836 18.7159L14.6441 19.9628C15.0302 19.8351 15.4065 19.679 15.7698 19.4961L15.9928 17.5114C16.0204 17.2659 16.1379 17.0392 16.3227 16.8752C16.5183 16.7016 16.7034 16.5164 16.8771 16.3208C17.0411 16.136 17.2678 16.0185 17.5133 15.9909L19.4969 15.7681C19.6786 15.4046 19.8334 15.0283 19.96 14.6422L18.7129 13.0805C18.5587 12.8874 18.4815 12.6441 18.4961 12.3974C18.5116 12.1358 18.5116 11.8735 18.4961 11.6118C18.4815 11.3651 18.5588 11.1216 18.7131 10.9285L19.96 9.36802C19.8322 8.98185 19.6762 8.6056 19.4933 8.24232L17.5086 8.01932C17.263 7.99173 17.0364 7.8742 16.8724 7.6894C16.6987 7.49378 16.5136 7.30866 16.318 7.13503C16.1332 6.97099 16.0157 6.74433 15.9881 6.49875L15.7651 4.51394C15.4015 4.33131 15.025 4.17559 14.6386 4.04804L13.0777 5.29449C12.8846 5.44868 12.6413 5.52593 12.3946 5.51133C12.133 5.49585 11.8707 5.49585 11.609 5.51133C11.3623 5.52593 11.1188 5.44862 10.9257 5.29431L9.36413 4.04653C8.97936 4.17289 8.60435 4.32726 8.24212 4.50839Z" fill="#fff"/>
</svg>
