<svg width="24" height="24" viewBox="0 0 24 24" fill="none" xmlns="http://www.w3.org/2000/svg">
<path fill-rule="evenodd" clip-rule="evenodd" d="M15.7071 8.29289C16.0976 8.68342 16.0976 9.31658 15.7071 9.70711L11.7071 13.7071C11.3166 14.0976 10.6834 14.0976 10.2929 13.7071C9.90237 13.3166 9.90237 12.6834 10.2929 12.2929L14.2929 8.29289C14.6834 7.90237 15.3166 7.90237 15.7071 8.29289Z" fill="#292929"/>
<path fill-rule="evenodd" clip-rule="evenodd" d="M19.8486 2.06345C20.1381 1.98186 20.4441 1.97891 20.7352 2.05488C21.0262 2.13086 21.2917 2.28302 21.5043 2.4957C21.717 2.70837 21.8692 2.97388 21.9451 3.26489C22.0211 3.55589 22.0181 3.86188 21.9366 4.15137L21.931 4.17033L16.8949 20.7786C16.8001 21.1056 16.6089 21.3965 16.3462 21.6133C16.0804 21.8325 15.754 21.9654 15.4106 21.9941C15.0673 22.0228 14.7233 21.9461 14.4247 21.7741C14.1281 21.6032 13.8903 21.3464 13.7426 21.0377L10.2142 13.7863L2.96231 10.2577C2.65353 10.11 2.39672 9.87219 2.22585 9.57551C2.05389 9.27695 1.97716 8.93301 2.0059 8.58967C2.03465 8.24633 2.1675 7.91994 2.38671 7.65412C2.60341 7.39135 2.8943 7.20014 3.22128 7.10539L19.8297 2.06899L19.8486 2.06345ZM19.8461 4.15396L4.53277 8.79762L11.3998 12.139C11.601 12.2369 11.7636 12.3995 11.8615 12.6007L15.2026 19.4671L19.8461 4.15396ZM3.7759 9.02694L3.78162 9.02527L3.7759 9.02694Z" fill="#292929"/>
</svg>
