<svg width="24" height="24" viewBox="0 0 24 24" fill="none" xmlns="http://www.w3.org/2000/svg">
<path fill-rule="evenodd" clip-rule="evenodd" d="M16.0001 12.75C16.0001 12.1977 16.4478 11.75 17.0001 11.75H21.5001C22.0524 11.75 22.5001 12.1977 22.5001 12.75C22.5001 13.3023 22.0524 13.75 21.5001 13.75H17.0001C16.4478 13.75 16.0001 13.3023 16.0001 12.75Z" fill="#292929"/>
<path fill-rule="evenodd" clip-rule="evenodd" d="M19.2501 9.5C19.8024 9.5 20.2501 9.94772 20.2501 10.5V15C20.2501 15.5523 19.8024 16 19.2501 16C18.6978 16 18.2501 15.5523 18.2501 15V10.5C18.2501 9.94772 18.6978 9.5 19.2501 9.5Z" fill="#292929"/>
<path fill-rule="evenodd" clip-rule="evenodd" d="M10.0001 4.75C7.79095 4.75 6.00009 6.54086 6.00009 8.75C6.00009 10.9591 7.79095 12.75 10.0001 12.75C12.2092 12.75 14.0001 10.9591 14.0001 8.75C14.0001 6.54086 12.2092 4.75 10.0001 4.75ZM4.00009 8.75C4.00009 5.43629 6.68638 2.75 10.0001 2.75C13.3138 2.75 16.0001 5.43629 16.0001 8.75C16.0001 12.0637 13.3138 14.75 10.0001 14.75C6.68638 14.75 4.00009 12.0637 4.00009 8.75Z" fill="#292929"/>
<path fill-rule="evenodd" clip-rule="evenodd" d="M10.0001 16C7.53192 16 5.39255 17.3273 3.81916 19.5737C3.50232 20.026 2.87876 20.1359 2.4264 19.8191C1.97404 19.5022 1.86417 18.8787 2.18101 18.4263C4.03262 15.7827 6.72825 14 10.0001 14C13.2719 14 15.9676 15.7827 17.8192 18.4263C18.136 18.8787 18.0261 19.5022 17.5738 19.8191C17.1214 20.1359 16.4979 20.026 16.181 19.5737C14.6076 17.3273 12.4683 16 10.0001 16Z" fill="#292929"/>
</svg>
