<svg display="none" xmlns="http://www.w3.org/2000/svg">
<symbol id="ic-map-pin" width="24" height="24" viewBox="0 0 24 24">
    <path fill-rule="evenodd" clip-rule="evenodd" d="M12 7.75C10.8954 7.75 10 8.64543 10 9.75C10 10.8546 10.8954 11.75 12 11.75C13.1046 11.75 14 10.8546 14 9.75C14 8.64543 13.1046 7.75 12 7.75ZM8 9.75C8 7.54086 9.79086 5.75 12 5.75C14.2091 5.75 16 7.54086 16 9.75C16 11.9591 14.2091 13.75 12 13.75C9.79086 13.75 8 11.9591 8 9.75Z" />
    <path fill-rule="evenodd" clip-rule="evenodd" d="M12 4C10.4229 4 8.90126 4.65363 7.7724 5.83211C6.64214 7.01206 6 8.62124 6 10.3077C6 13.2509 7.57648 15.949 9.26837 17.9802C10.1037 18.9831 10.9413 19.7921 11.57 20.35C11.7281 20.4903 11.8726 20.6144 12 20.7212C12.1274 20.6144 12.2719 20.4903 12.43 20.35C13.0587 19.7921 13.8963 18.9831 14.7316 17.9802C16.4235 15.949 18 13.2509 18 10.3077C18 8.62124 17.3579 7.01206 16.2276 5.83211C15.0987 4.65363 13.5771 4 12 4ZM12 22C11.41 22.8074 11.4097 22.8072 11.4094 22.807L11.4068 22.805L11.401 22.8008L11.382 22.7867C11.3661 22.7748 11.3437 22.758 11.3153 22.7363C11.2584 22.693 11.1773 22.6303 11.0755 22.549C10.872 22.3867 10.5851 22.1499 10.2425 21.8459C9.55868 21.2391 8.64627 20.3583 7.73163 19.2602C5.92352 17.0895 4 13.9415 4 10.3077C4 8.1179 4.83286 6.0096 6.32811 4.44863C7.82475 2.8862 9.86405 2 12 2C14.136 2 16.1752 2.8862 17.6719 4.44863C19.1671 6.0096 20 8.1179 20 10.3077C20 13.9415 18.0765 17.0895 16.2684 19.2602C15.3537 20.3583 14.4413 21.2391 13.7575 21.8459C13.4149 22.1499 13.128 22.3867 12.9245 22.549C12.8227 22.6303 12.7416 22.693 12.6847 22.7363C12.6563 22.758 12.6339 22.7748 12.618 22.7867L12.599 22.8008L12.5932 22.805L12.5913 22.8064C12.591 22.8067 12.59 22.8074 12 22ZM12 22L12.59 22.8074C12.2386 23.0642 11.7608 23.0638 11.4094 22.807L12 22Z" />
</symbol>
</svg>
