<svg width="24" height="24" viewBox="0 0 24 24" fill="none" xmlns="http://www.w3.org/2000/svg">
<path fill-rule="evenodd" clip-rule="evenodd" d="M12 4C7.58172 4 4 7.58172 4 12C4 16.4183 7.58172 20 12 20C16.4183 20 20 16.4183 20 12C20 7.58172 16.4183 4 12 4ZM2 12C2 6.47715 6.47715 2 12 2C17.5228 2 22 6.47715 22 12C22 17.5228 17.5228 22 12 22C6.47715 22 2 17.5228 2 12Z" fill="#292929"/>
<path fill-rule="evenodd" clip-rule="evenodd" d="M10.25 11.25C10.25 10.6977 10.6977 10.25 11.25 10.25C11.7141 10.25 12.1592 10.4344 12.4874 10.7626C12.8156 11.0908 13 11.5359 13 12V15.5315C13.4313 15.6425 13.75 16.034 13.75 16.5C13.75 17.0523 13.3023 17.5 12.75 17.5C12.2859 17.5 11.8408 17.3156 11.5126 16.9874C11.1844 16.6592 11 16.2141 11 15.75V12.2185C10.5687 12.1075 10.25 11.716 10.25 11.25Z" fill="#292929"/>
<path d="M11.625 9C12.2463 9 12.75 8.49632 12.75 7.875C12.75 7.25368 12.2463 6.75 11.625 6.75C11.0037 6.75 10.5 7.25368 10.5 7.875C10.5 8.49632 11.0037 9 11.625 9Z" fill="#292929"/>
</svg>
