<svg width="24" height="24" viewBox="0 0 24 24" fill="none" xmlns="http://www.w3.org/2000/svg">
<path fill-rule="evenodd" clip-rule="evenodd" d="M6 6C6 5.44772 6.44772 5 7 5L21 5C21.5523 5 22 5.44772 22 6C22 6.55229 21.5523 7 21 7L7 7C6.44772 7 6 6.55228 6 6Z" fill="#292929"/>
<path fill-rule="evenodd" clip-rule="evenodd" d="M6 12C6 11.4477 6.44772 11 7 11L21 11C21.5523 11 22 11.4477 22 12C22 12.5523 21.5523 13 21 13L7 13C6.44772 13 6 12.5523 6 12Z" fill="#292929"/>
<path fill-rule="evenodd" clip-rule="evenodd" d="M6 18C6 17.4477 6.44772 17 7 17L21 17C21.5523 17 22 17.4477 22 18C22 18.5523 21.5523 19 21 19L7 19C6.44772 19 6 18.5523 6 18Z" fill="#292929"/>
<path d="M3.125 7.125C3.74632 7.125 4.25 6.62132 4.25 6C4.25 5.37868 3.74632 4.875 3.125 4.875C2.50368 4.875 2 5.37868 2 6C2 6.62132 2.50368 7.125 3.125 7.125Z" fill="#292929"/>
<path d="M3.125 13.125C3.74632 13.125 4.25 12.6213 4.25 12C4.25 11.3787 3.74632 10.875 3.125 10.875C2.50368 10.875 2 11.3787 2 12C2 12.6213 2.50368 13.125 3.125 13.125Z" fill="#292929"/>
<path d="M3.125 19.125C3.74632 19.125 4.25 18.6213 4.25 18C4.25 17.3787 3.74632 16.875 3.125 16.875C2.50368 16.875 2 17.3787 2 18C2 18.6213 2.50368 19.125 3.125 19.125Z" fill="#292929"/>
</svg>
