<svg width="24" height="24" viewBox="0 0 24 24" fill="none" xmlns="http://www.w3.org/2000/svg">
<path fill-rule="evenodd" clip-rule="evenodd" d="M4 9.00012V20.0001H20V9.00012H4ZM2 8.81262C2 7.80505 2.82061 7.00012 3.81818 7.00012H20.1818C21.1794 7.00012 22 7.80505 22 8.81262V20.1876C22 21.1952 21.1794 22.0001 20.1818 22.0001H3.81818C2.82061 22.0001 2 21.1952 2 20.1876V8.81262Z" fill="#292929"/>
<path d="M12 15.3751C12.6213 15.3751 13.125 14.8714 13.125 14.2501C13.125 13.6288 12.6213 13.1251 12 13.1251C11.3787 13.1251 10.875 13.6288 10.875 14.2501C10.875 14.8714 11.3787 15.3751 12 15.3751Z" fill="#292929"/>
<path fill-rule="evenodd" clip-rule="evenodd" d="M12.0234 2.94141C11.3451 2.94141 10.7037 3.19851 10.2382 3.64185C9.77436 4.08362 9.52344 4.67208 9.52344 5.27474V7.94141C9.52344 8.49369 9.07572 8.94141 8.52344 8.94141C7.97115 8.94141 7.52344 8.49369 7.52344 7.94141V5.27474C7.52344 4.10929 8.01001 3.00205 8.85891 2.19358C9.70615 1.38668 10.8453 0.941406 12.0234 0.941406C13.2016 0.941406 14.3407 1.38668 15.188 2.19358C16.0369 3.00205 16.5234 4.10929 16.5234 5.27474V7.94141C16.5234 8.49369 16.0757 8.94141 15.5234 8.94141C14.9712 8.94141 14.5234 8.49369 14.5234 7.94141V5.27474C14.5234 4.67208 14.2725 4.08362 13.8087 3.64185C13.3431 3.19851 12.7018 2.94141 12.0234 2.94141Z" fill="#292929"/>
</svg>
