<svg width="24" height="24" viewBox="0 0 24 24" fill="none" xmlns="http://www.w3.org/2000/svg">
<path fill-rule="evenodd" clip-rule="evenodd" d="M16.5921 3.96093L15.75 4.50022C16.5921 3.96093 16.5921 3.96093 16.5921 3.96093L16.5952 3.96573L16.6018 3.97616L16.6254 4.01362C16.6456 4.04587 16.6746 4.09254 16.7116 4.1528C16.7854 4.2733 16.8909 4.44826 17.0204 4.671C17.2794 5.11621 17.6356 5.75372 18.0288 6.52987C18.812 8.07589 19.7557 10.1989 20.3623 12.4626C20.5 12.9701 20.5363 13.4998 20.469 14.0214C20.4017 14.5436 20.2319 15.0473 19.9694 15.5038C19.707 15.9602 19.357 16.3603 18.9396 16.6812C18.5221 17.002 18.0454 17.2373 17.5369 17.3736C17.0283 17.5098 16.4978 17.5443 15.9759 17.4751C15.4539 17.4058 14.9508 17.2342 14.4953 16.9701C14.0399 16.706 13.641 16.3546 13.3216 15.936C13.0027 15.5179 12.7693 15.0409 12.6348 14.5325C12.0266 12.2613 11.8085 9.92474 11.7397 8.17227C11.7052 7.29206 11.7079 6.55064 11.7195 6.0272C11.7253 5.76532 11.7332 5.55754 11.7399 5.41372C11.7432 5.3418 11.7461 5.28583 11.7484 5.24706L11.751 5.20192L11.7518 5.18929L11.7521 5.18427C11.7521 5.18427 11.7522 5.18345 12.75 5.25022L11.7521 5.18427C11.7811 4.75114 12.0863 4.38536 12.5074 4.28008L15.5074 3.53008C15.924 3.42594 16.3605 3.59934 16.5921 3.96093ZM13.7197 6.03855C13.7195 6.04935 13.7192 6.06025 13.719 6.07126C13.7082 6.56097 13.7055 7.26095 13.7382 8.0938C13.8039 9.76697 14.0114 11.9423 14.5672 14.0168L14.5681 14.0203C14.6353 14.2748 14.7521 14.5136 14.9117 14.7229C15.0714 14.9322 15.2709 15.1079 15.4986 15.24C15.7263 15.372 15.9779 15.4578 16.2389 15.4924C16.4998 15.5271 16.7651 15.5098 17.0194 15.4417C17.2736 15.3736 17.512 15.2559 17.7207 15.0955C17.9294 14.9351 18.1044 14.735 18.2356 14.5068C18.3669 14.2786 18.4518 14.0267 18.4854 13.7656C18.5191 13.5045 18.5009 13.2393 18.4318 12.9853L18.4309 12.9818C17.8732 10.8999 16.9937 8.91214 16.2447 7.43369C15.8717 6.69742 15.5345 6.09415 15.2917 5.67669C15.2864 5.66754 15.2811 5.65849 15.2759 5.64952L13.7197 6.03855Z" fill="#292929"/>
<path fill-rule="evenodd" clip-rule="evenodd" d="M16.9536 15.4503C17.4765 15.2725 18.0445 15.5524 18.2222 16.0753L19.4468 19.6784C19.6245 20.2013 19.3447 20.7693 18.8218 20.947C18.2989 21.1248 17.7309 20.8449 17.5532 20.322L16.3286 16.7189C16.1509 16.196 16.4307 15.628 16.9536 15.4503Z" fill="#292929"/>
<path fill-rule="evenodd" clip-rule="evenodd" d="M21.9578 19.2129C22.1165 19.7419 21.8163 20.2993 21.2873 20.458L16.2873 21.958C15.7584 22.1167 15.2009 21.8166 15.0422 21.2876C14.8835 20.7586 15.1837 20.2011 15.7127 20.0424L20.7127 18.5424C21.2416 18.3837 21.7991 18.6839 21.9578 19.2129Z" fill="#292929"/>
<path fill-rule="evenodd" clip-rule="evenodd" d="M8.9078 1.71093C9.13936 1.34934 9.57591 1.17594 9.99246 1.28008L12.9925 2.03008C13.4211 2.13723 13.7286 2.51295 13.7489 2.95428L12.7499 3.00022C13.7489 2.95428 13.7489 2.95428 13.7489 2.95428L13.7491 2.95981L13.7496 2.97211L13.7514 3.01652C13.7528 3.0548 13.7547 3.11021 13.7567 3.18153C13.7607 3.32415 13.765 3.53054 13.7668 3.79092C13.7704 4.31139 13.7637 5.04915 13.723 5.9256C13.6418 7.67187 13.4241 9.99858 12.87 12.2632L12.8656 12.2808C12.7312 12.7898 12.4976 13.2674 12.1782 13.686C11.8589 14.1046 11.46 14.456 11.0046 14.7201C10.5491 14.9842 10.046 15.1558 9.52403 15.2251C9.00209 15.2943 8.47162 15.2598 7.96304 15.1236C7.45446 14.9873 6.97778 14.752 6.56034 14.4312C6.1429 14.1103 5.79292 13.7102 5.53046 13.2538C5.268 12.7973 5.09823 12.2936 5.0309 11.7714C4.96364 11.2498 4.99989 10.7201 5.13758 10.2125C5.74423 7.94882 6.68789 5.82587 7.47107 4.27987C7.86425 3.50372 8.22047 2.86621 8.47947 2.421C8.60904 2.19826 8.71449 2.0233 8.78833 1.9028C8.82526 1.84254 8.8543 1.79587 8.87452 1.76362L8.89812 1.72616L8.90475 1.71573L8.9078 1.71093C8.9078 1.71093 8.9078 1.71093 9.74993 2.25022L8.9078 1.71093ZM10.224 3.39952C10.2188 3.40849 10.2135 3.41754 10.2082 3.42669C9.96536 3.84415 9.62818 4.44742 9.2552 5.18369C8.50623 6.66214 7.62674 8.64991 7.06899 10.7318L7.06805 10.7353C6.99901 10.9893 6.9808 11.2545 7.01447 11.5156C7.04814 11.7767 7.13302 12.0286 7.26425 12.2568C7.39548 12.485 7.57047 12.6851 7.77919 12.8455C7.98791 13.0059 8.22625 13.1236 8.48054 13.1917C8.73483 13.2598 9.00007 13.2771 9.26104 13.2424C9.52201 13.2078 9.77357 13.122 10.0013 12.99C10.229 12.8579 10.4285 12.6822 10.5881 12.4729C10.7462 12.2658 10.8622 12.0298 10.9297 11.7783C11.4398 9.68923 11.6473 7.5074 11.7251 5.83273C11.7639 4.99743 11.7702 4.29571 11.7668 3.80465C11.7668 3.79812 11.7668 3.79164 11.7667 3.78519L10.224 3.39952Z" fill="#292929"/>
<path fill-rule="evenodd" clip-rule="evenodd" d="M8.48359 13.1812C9.01704 13.3242 9.33356 13.8725 9.19057 14.406L7.84432 19.4282C7.70132 19.9616 7.15295 20.2782 6.6195 20.1352C6.08605 19.9922 5.76952 19.4438 5.91252 18.9103L7.25877 13.8882C7.40177 13.3547 7.95014 13.0382 8.48359 13.1812Z" fill="#292929"/>
<path fill-rule="evenodd" clip-rule="evenodd" d="M3.53407 18.273C3.67699 17.7396 4.22532 17.423 4.75879 17.5659L9.25879 18.7715C9.79226 18.9145 10.1089 19.4628 9.96593 19.9963C9.82301 20.5297 9.27468 20.8463 8.74121 20.7034L4.24121 19.4978C3.70774 19.3548 3.39114 18.8065 3.53407 18.273Z" fill="#292929"/>
<path fill-rule="evenodd" clip-rule="evenodd" d="M18.5894 7.72612C18.7235 8.26187 18.3979 8.80491 17.8622 8.93903L13.0387 10.1465C12.503 10.2807 11.96 9.95507 11.8258 9.41932C11.6917 8.88356 12.0173 8.34052 12.5531 8.2064L17.3765 6.9989C17.9122 6.86478 18.4553 7.19037 18.5894 7.72612Z" fill="#292929"/>
<path fill-rule="evenodd" clip-rule="evenodd" d="M6.83258 5.64616C6.96651 5.11035 7.50943 4.78457 8.04523 4.91849L12.8912 6.12974C13.427 6.26367 13.7527 6.80659 13.6188 7.34239C13.4849 7.87819 12.942 8.20398 12.4062 8.07005L7.56024 6.8588C7.02444 6.72488 6.69866 6.18196 6.83258 5.64616Z" fill="#292929"/>
<path fill-rule="evenodd" clip-rule="evenodd" d="M21.1444 2.55301C21.3914 3.04698 21.1912 3.64766 20.6972 3.89465L19.1972 4.64465C18.7032 4.89164 18.1026 4.69141 17.8556 4.19743C17.6086 3.70345 17.8088 3.10278 18.3028 2.85579L19.8028 2.10579C20.2968 1.8588 20.8974 2.05903 21.1444 2.55301Z" fill="#292929"/>
<path fill-rule="evenodd" clip-rule="evenodd" d="M19.25 6.75022C19.25 6.19793 19.6977 5.75022 20.25 5.75022H21.75C22.3023 5.75022 22.75 6.19793 22.75 6.75022C22.75 7.3025 22.3023 7.75022 21.75 7.75022H20.25C19.6977 7.75022 19.25 7.3025 19.25 6.75022Z" fill="#292929"/>
<path fill-rule="evenodd" clip-rule="evenodd" d="M3.60557 1.80301C3.85256 1.30903 4.45324 1.1088 4.94721 1.35579L6.44721 2.10579C6.94119 2.35278 7.14142 2.95345 6.89443 3.44743C6.64744 3.94141 6.04676 4.14164 5.55279 3.89465L4.05279 3.14465C3.55881 2.89766 3.35858 2.29698 3.60557 1.80301Z" fill="#292929"/>
<path fill-rule="evenodd" clip-rule="evenodd" d="M2 6.00022C2 5.44793 2.44772 5.00022 3 5.00022H4.5C5.05228 5.00022 5.5 5.44793 5.5 6.00022C5.5 6.5525 5.05228 7.00022 4.5 7.00022H3C2.44772 7.00022 2 6.5525 2 6.00022Z" fill="#292929"/>
</svg>
