<svg width="24" height="24" viewBox="0 0 24 24" fill="none" xmlns="http://www.w3.org/2000/svg">
<path fill-rule="evenodd" clip-rule="evenodd" d="M12 4C7.58172 4 4 7.58172 4 12C4 16.4183 7.58172 20 12 20C16.4183 20 20 16.4183 20 12C20 7.58172 16.4183 4 12 4ZM2 12C2 6.47715 6.47715 2 12 2C17.5228 2 22 6.47715 22 12C22 17.5228 17.5228 22 12 22C6.47715 22 2 17.5228 2 12Z" fill="#292929"/>
<path fill-rule="evenodd" clip-rule="evenodd" d="M12.6247 2.21913L12 3L11.3753 2.21913C11.7405 1.92696 12.2595 1.92696 12.6247 2.21913ZM12 21C11.3753 21.7809 11.3745 21.7802 11.3745 21.7802L11.3736 21.7795L11.3716 21.7779L11.3666 21.7738L11.3525 21.7623C11.3413 21.7531 11.3267 21.7408 11.3088 21.7255C11.273 21.695 11.2241 21.6523 11.1641 21.5974C11.0441 21.4877 10.8792 21.3291 10.6845 21.1214C10.2955 20.7065 9.78516 20.093 9.277 19.28C8.25822 17.6499 7.25 15.2188 7.25 12C7.25 8.78121 8.25822 6.35005 9.277 4.72C9.78516 3.90695 10.2955 3.29348 10.6845 2.87856C10.8792 2.6709 11.0441 2.51229 11.1641 2.4026C11.2241 2.34773 11.273 2.30502 11.3088 2.27447C11.3267 2.25919 11.3413 2.24694 11.3525 2.23772L11.3666 2.22616L11.3716 2.22208L11.3736 2.22046L11.3745 2.21976C11.3745 2.21976 11.3753 2.21913 12 3C12.6247 2.21913 12.6255 2.21976 12.6255 2.21976L12.6264 2.22046L12.6284 2.22208L12.6334 2.22616L12.6475 2.23772C12.6587 2.24694 12.6733 2.25919 12.6912 2.27447C12.727 2.30502 12.7759 2.34773 12.8359 2.4026C12.9559 2.51229 13.1208 2.6709 13.3155 2.87856C13.7045 3.29348 14.2148 3.90695 14.723 4.72C15.7418 6.35005 16.75 8.78121 16.75 12C16.75 15.2188 15.7418 17.6499 14.723 19.28C14.2148 20.093 13.7045 20.7065 13.3155 21.1214C13.1208 21.3291 12.9559 21.4877 12.8359 21.5974C12.7759 21.6523 12.727 21.695 12.6912 21.7255C12.6733 21.7408 12.6587 21.7531 12.6475 21.7623L12.6334 21.7738L12.6284 21.7779L12.6264 21.7795L12.6255 21.7802C12.6255 21.7802 12.6247 21.7809 12 21ZM12 21L11.3753 21.7809C11.7405 22.073 12.2595 22.073 12.6247 21.7809L12 21ZM12 19.5965C11.7054 19.2663 11.34 18.8072 10.973 18.22C10.1168 16.8501 9.25 14.7812 9.25 12C9.25 9.21879 10.1168 7.14995 10.973 5.78C11.34 5.19276 11.7054 4.73372 12 4.40351C12.2946 4.73372 12.66 5.19276 13.027 5.78C13.8832 7.14995 14.75 9.21879 14.75 12C14.75 14.7812 13.8832 16.8501 13.027 18.22C12.66 18.8072 12.2946 19.2663 12 19.5965Z" fill="#292929"/>
<path fill-rule="evenodd" clip-rule="evenodd" d="M2.51187 9C2.51187 8.44772 2.95959 8 3.51187 8H20.4881C21.0404 8 21.4881 8.44772 21.4881 9C21.4881 9.55228 21.0404 10 20.4881 10H3.51187C2.95959 10 2.51187 9.55228 2.51187 9Z" fill="#292929"/>
<path fill-rule="evenodd" clip-rule="evenodd" d="M2.51187 15C2.51187 14.4477 2.95959 14 3.51187 14H20.4881C21.0404 14 21.4881 14.4477 21.4881 15C21.4881 15.5523 21.0404 16 20.4881 16H3.51187C2.95959 16 2.51187 15.5523 2.51187 15Z" fill="#292929"/>
</svg>
