<svg width="24" height="24" viewBox="0 0 24 24" fill="none" xmlns="http://www.w3.org/2000/svg">
<path fill-rule="evenodd" clip-rule="evenodd" d="M5.93934 2.05134C6.16303 1.99781 6.3959 1.98599 6.62452 2.01658C6.85206 2.04703 7.07092 2.11887 7.26859 2.228C7.26952 2.22852 7.27045 2.22903 7.27139 2.22955L14.3918 6.12926C14.8677 6.38991 15.0263 6.96006 14.7461 7.40273C14.4659 7.8454 13.8529 7.99296 13.377 7.73231L6.46376 3.94603L5.59009 5.32346L19.6331 13.0112C19.6336 13.0116 19.6342 13.0119 19.6348 13.0122C19.8336 13.1204 20.0074 13.2642 20.1464 13.4351C20.2857 13.6065 20.3872 13.8019 20.445 14.0099C20.5027 14.218 20.5156 14.4347 20.4829 14.6474C20.4503 14.8594 20.373 15.0633 20.2555 15.2475C20.2551 15.2481 20.2547 15.2488 20.2543 15.2494L19.133 17.0173C19.1326 17.0178 19.1323 17.0184 19.132 17.0189C19.0154 17.2036 18.8608 17.3651 18.6769 17.4942C18.4926 17.6236 18.2825 17.7178 18.0588 17.7713C17.8351 17.8248 17.6022 17.8367 17.3736 17.8061C17.1461 17.7756 16.9272 17.7038 16.7295 17.5946C16.7286 17.5941 16.7277 17.5936 16.7267 17.5931L9.60636 13.6934C9.13045 13.4327 8.97181 12.8626 9.25203 12.4199C9.53226 11.9772 10.1452 11.8297 10.6211 12.0903L17.5344 15.8766L18.408 14.4992L4.36507 6.8114C4.36449 6.81108 4.3639 6.81076 4.36331 6.81044C4.16454 6.70218 3.99069 6.55847 3.85175 6.38757C3.7124 6.21616 3.61092 6.02078 3.55316 5.8127C3.49541 5.60462 3.48252 5.38797 3.51524 5.17524C3.54786 4.96322 3.62513 4.75929 3.74262 4.57512L4.86617 2.80374C4.98274 2.61902 5.13737 2.4575 5.3212 2.32847C5.50556 2.19905 5.71565 2.10486 5.93934 2.05134ZM5.46243 5.52472L5.46338 5.52321ZM6.24736 3.8275L6.24962 3.82874Z" fill="#292929"/>
<path fill-rule="evenodd" clip-rule="evenodd" d="M16.9324 3.95092L8.67103 17.0094C8.67069 17.01 8.67035 17.0105 8.67002 17.011C8.55362 17.1959 8.39912 17.3577 8.21537 17.4869C8.03108 17.6165 7.82103 17.7109 7.59733 17.7646C7.37363 17.8184 7.1407 17.8303 6.91199 17.7999C6.68401 17.7696 6.46473 17.6977 6.2667 17.5884C6.26606 17.588 6.26542 17.5876 6.26478 17.5873L4.36415 16.5443C4.36358 16.544 4.36301 16.5437 4.36245 16.5434C4.16383 16.4349 3.99017 16.2911 3.85143 16.1201C3.7123 15.9486 3.61104 15.7532 3.55349 15.5451C3.49594 15.3371 3.48324 15.1205 3.51612 14.9078C3.54885 14.6962 3.62608 14.4926 3.74339 14.3088C3.74395 14.3079 3.74452 14.307 3.74509 14.3061L7.93766 7.68314C8.21788 7.24047 8.83085 7.09292 9.30677 7.35357C9.78268 7.61422 9.94132 8.18437 9.66109 8.62704L5.59048 15.0574L7.07132 15.87L15.3327 2.81146C15.3331 2.81091 15.3334 2.81035 15.3338 2.8098C15.4502 2.62492 15.6047 2.46322 15.7884 2.334C15.9727 2.20438 16.1827 2.10999 16.4064 2.05627C16.6301 2.00255 16.8631 1.99056 17.0918 2.021C17.3197 2.05133 17.5389 2.1232 17.7369 2.23249C17.7376 2.23286 17.7383 2.23324 17.739 2.23361L19.6396 3.2766C19.6402 3.27693 19.6408 3.27727 19.6414 3.2776C19.84 3.38603 20.0136 3.52984 20.1523 3.7008C20.2915 3.87229 20.3927 4.0677 20.4503 4.27576C20.5078 4.48382 20.5205 4.70042 20.4876 4.91308C20.4549 5.12475 20.3776 5.32834 20.2603 5.51222C20.2598 5.51307 20.2592 5.51391 20.2587 5.51476L16.0661 12.1378C15.7859 12.5804 15.1729 12.728 14.697 12.4673C14.2211 12.2067 14.0624 11.6365 14.3427 11.1939L18.4133 4.76355L16.9324 3.95092Z" fill="#292929"/>
<path fill-rule="evenodd" clip-rule="evenodd" d="M2 21.0696C2 20.5559 2.44772 20.1395 3 20.1395H21C21.5523 20.1395 22 20.5559 22 21.0696C22 21.5833 21.5523 21.9997 21 21.9997H3C2.44772 21.9997 2 21.5833 2 21.0696Z" fill="#292929"/>
<path fill-rule="evenodd" clip-rule="evenodd" d="M13.6838 14.6063C14.2077 14.4439 14.774 14.7072 14.9487 15.1946L16.9487 20.7755C17.1233 21.2628 16.8402 21.7896 16.3162 21.952C15.7923 22.1145 15.226 21.8511 15.0513 21.3637L13.0513 15.7829C12.8767 15.2955 13.1598 14.7688 13.6838 14.6063Z" fill="#292929"/>
<path fill-rule="evenodd" clip-rule="evenodd" d="M10.2747 13.6642C10.8058 13.8053 11.1132 14.3202 10.9615 14.8141L8.96152 21.3251C8.8098 21.8191 8.25631 22.1051 7.72528 21.964C7.19424 21.8228 6.88675 21.308 7.03848 20.8141L9.03848 14.303C9.1902 13.8091 9.74369 13.5231 10.2747 13.6642Z" fill="#292929"/>
</svg>
