<svg width="24" height="24" viewBox="0 0 24 24" fill="none" xmlns="http://www.w3.org/2000/svg">
<path fill-rule="evenodd" clip-rule="evenodd" d="M12 2C12.5523 2 13 2.44772 13 3V13.5C13 14.0523 12.5523 14.5 12 14.5C11.4477 14.5 11 14.0523 11 13.5V3C11 2.44772 11.4477 2 12 2Z" fill="#292929"/>
<path fill-rule="evenodd" clip-rule="evenodd" d="M3 12C3.55228 12 4 12.4477 4 13V18H20V13C20 12.4477 20.4477 12 21 12C21.5523 12 22 12.4477 22 13V19C22 19.5523 21.5523 20 21 20H3C2.44772 20 2 19.5523 2 19V13C2 12.4477 2.44772 12 3 12Z" fill="#292929"/>
<path fill-rule="evenodd" clip-rule="evenodd" d="M7.54289 9.04289C7.93342 8.65237 8.56658 8.65237 8.95711 9.04289L12 12.0858L15.0429 9.04289C15.4334 8.65237 16.0666 8.65237 16.4571 9.04289C16.8476 9.43342 16.8476 10.0666 16.4571 10.4571L12.7071 14.2071C12.3166 14.5976 11.6834 14.5976 11.2929 14.2071L7.54289 10.4571C7.15237 10.0666 7.15237 9.43342 7.54289 9.04289Z" fill="#292929"/>
</svg>
