<svg width="24" height="24" viewBox="0 0 24 24" fill="none" xmlns="http://www.w3.org/2000/svg">
<path fill-rule="evenodd" clip-rule="evenodd" d="M4 12C4 11.4477 4.44772 11 5 11H19C19.5523 11 20 11.4477 20 12C20 12.5523 19.5523 13 19 13H5C4.44772 13 4 12.5523 4 12Z" fill="#292929"/>
<path fill-rule="evenodd" clip-rule="evenodd" d="M4 7C4 6.44772 4.44772 6 5 6H19C19.5523 6 20 6.44772 20 7C20 7.55228 19.5523 8 19 8H5C4.44772 8 4 7.55228 4 7Z" fill="#292929"/>
<path fill-rule="evenodd" clip-rule="evenodd" d="M9.5547 18.1679C10.0142 18.4743 10.1384 19.0952 9.83205 19.5547L7.83205 22.5547C7.5257 23.0142 6.90483 23.1384 6.4453 22.8321C5.98577 22.5257 5.8616 21.9048 6.16795 21.4453L8.16795 18.4453C8.4743 17.9858 9.09517 17.8616 9.5547 18.1679Z" fill="#292929"/>
<path fill-rule="evenodd" clip-rule="evenodd" d="M14.4453 18.1679C14.9048 17.8616 15.5257 17.9858 15.8321 18.4453L17.8321 21.4453C18.1384 21.9048 18.0142 22.5257 17.5547 22.8321C17.0952 23.1384 16.4743 23.0142 16.1679 22.5547L14.1679 19.5547C13.8616 19.0952 13.9858 18.4743 14.4453 18.1679Z" fill="#292929"/>
<path fill-rule="evenodd" clip-rule="evenodd" d="M7.1 4C6.52817 4 6 4.49275 6 5.18182V16.8182C6 17.5073 6.52817 18 7.1 18H16.9C17.4718 18 18 17.5073 18 16.8182V5.18182C18 4.49275 17.4718 4 16.9 4H7.1ZM4 5.18182C4 3.46092 5.35224 2 7.1 2H16.9C18.6478 2 20 3.46092 20 5.18182V16.8182C20 18.5391 18.6478 20 16.9 20H7.1C5.35224 20 4 18.5391 4 16.8182V5.18182Z" fill="#292929"/>
<path fill-rule="evenodd" clip-rule="evenodd" d="M12 6C12.5523 6 13 6.44772 13 7V12C13 12.5523 12.5523 13 12 13C11.4477 13 11 12.5523 11 12V7C11 6.44772 11.4477 6 12 6Z" fill="#292929"/>
<path d="M8 17C8.55228 17 9 16.5523 9 16C9 15.4477 8.55228 15 8 15C7.44772 15 7 15.4477 7 16C7 16.5523 7.44772 17 8 17Z" fill="#292929"/>
<path d="M16 17C16.5523 17 17 16.5523 17 16C17 15.4477 16.5523 15 16 15C15.4477 15 15 15.4477 15 16C15 16.5523 15.4477 17 16 17Z" fill="#292929"/>
</svg>
