<svg width="24" height="24" viewBox="0 0 24 24" fill="none" xmlns="http://www.w3.org/2000/svg">
<path fill-rule="evenodd" clip-rule="evenodd" d="M9.75 6.25C9.05964 6.25 8.5 6.80964 8.5 7.5C8.5 8.19036 9.05964 8.75 9.75 8.75C10.4404 8.75 11 8.19036 11 7.5C11 6.80964 10.4404 6.25 9.75 6.25ZM6.5 7.5C6.5 5.70507 7.95507 4.25 9.75 4.25C11.5449 4.25 13 5.70507 13 7.5C13 9.29493 11.5449 10.75 9.75 10.75C7.95507 10.75 6.5 9.29493 6.5 7.5Z" fill="#292929"/>
<path fill-rule="evenodd" clip-rule="evenodd" d="M15.75 15.25C15.0596 15.25 14.5 15.8096 14.5 16.5C14.5 17.1904 15.0596 17.75 15.75 17.75C16.4404 17.75 17 17.1904 17 16.5C17 15.8096 16.4404 15.25 15.75 15.25ZM12.5 16.5C12.5 14.7051 13.9551 13.25 15.75 13.25C17.5449 13.25 19 14.7051 19 16.5C19 18.2949 17.5449 19.75 15.75 19.75C13.9551 19.75 12.5 18.2949 12.5 16.5Z" fill="#292929"/>
<path fill-rule="evenodd" clip-rule="evenodd" d="M11 7.5C11 6.94772 11.4477 6.5 12 6.5H20.25C20.8023 6.5 21.25 6.94772 21.25 7.5C21.25 8.05228 20.8023 8.5 20.25 8.5H12C11.4477 8.5 11 8.05228 11 7.5Z" fill="#292929"/>
<path fill-rule="evenodd" clip-rule="evenodd" d="M2.75 7.5C2.75 6.94772 3.19772 6.5 3.75 6.5H7.5C8.05228 6.5 8.5 6.94772 8.5 7.5C8.5 8.05228 8.05228 8.5 7.5 8.5H3.75C3.19772 8.5 2.75 8.05228 2.75 7.5Z" fill="#292929"/>
<path fill-rule="evenodd" clip-rule="evenodd" d="M17 16.5C17 15.9477 17.4477 15.5 18 15.5H20.25C20.8023 15.5 21.25 15.9477 21.25 16.5C21.25 17.0523 20.8023 17.5 20.25 17.5H18C17.4477 17.5 17 17.0523 17 16.5Z" fill="#292929"/>
<path fill-rule="evenodd" clip-rule="evenodd" d="M2.75 16.5C2.75 15.9477 3.19772 15.5 3.75 15.5H13.5C14.0523 15.5 14.5 15.9477 14.5 16.5C14.5 17.0523 14.0523 17.5 13.5 17.5H3.75C3.19772 17.5 2.75 17.0523 2.75 16.5Z" fill="#292929"/>
</svg>
