<svg width="24" height="24" viewBox="0 0 24 24" fill="none" xmlns="http://www.w3.org/2000/svg">
<path fill-rule="evenodd" clip-rule="evenodd" d="M12 11.0002C11.4478 11.0002 11 11.4479 11 12.0002C11 12.5524 11.4478 13.0002 12 13.0002C12.5523 13.0002 13 12.5524 13 12.0002C13 11.4479 12.5523 11.0002 12 11.0002ZM9.00004 12.0002C9.00004 10.3433 10.3432 9.00016 12 9.00016C13.6569 9.00016 15 10.3433 15 12.0002C15 13.657 13.6569 15.0002 12 15.0002C10.3432 15.0002 9.00004 13.657 9.00004 12.0002Z" fill="#292929"/>
<path fill-rule="evenodd" clip-rule="evenodd" d="M2.00004 7.00016C2.00004 6.44787 2.44775 6.00016 3.00004 6.00016H21C21.5523 6.00016 22 6.44787 22 7.00016V17.0002C22 17.5524 21.5523 18.0002 21 18.0002H3.00004C2.44775 18.0002 2.00004 17.5524 2.00004 17.0002V7.00016ZM4.00004 8.00016V16.0002H20V8.00016H4.00004Z" fill="#292929"/>
<path fill-rule="evenodd" clip-rule="evenodd" d="M16.8329 6.01422C17.3775 5.92193 17.8937 6.28853 17.986 6.83305C18.1207 7.6278 18.4993 8.36097 19.0692 8.93096C19.6392 9.50094 20.3724 9.87952 21.1671 10.0142C21.7117 10.1065 22.0783 10.6227 21.986 11.1673C21.8937 11.7118 21.3775 12.0784 20.8329 11.9861C19.629 11.7821 18.5184 11.2086 17.655 10.3452C16.7916 9.48176 16.2181 8.37115 16.0141 7.16727C15.9218 6.62275 16.2884 6.10651 16.8329 6.01422Z" fill="#292929"/>
<path fill-rule="evenodd" clip-rule="evenodd" d="M21.736 12.8331C21.8283 13.3776 21.4617 13.8938 20.9171 13.9861C20.1849 14.1102 19.5093 14.459 18.9841 14.9842C18.4589 15.5094 18.1101 16.185 17.986 16.9173C17.8937 17.4618 17.3775 17.8284 16.8329 17.7361C16.2884 17.6438 15.9218 17.1276 16.0141 16.5831C16.2076 15.4416 16.7513 14.3886 17.5699 13.57C18.3885 12.7514 19.4415 12.2077 20.5829 12.0142C21.1275 11.9219 21.6437 12.2885 21.736 12.8331Z" fill="#292929"/>
<path fill-rule="evenodd" clip-rule="evenodd" d="M2.0141 12.8331C2.10639 12.2885 2.62262 11.9219 3.16714 12.0142C4.37103 12.2183 5.48163 12.7917 6.34505 13.6551C7.20846 14.5186 7.78193 15.6292 7.98598 16.8331C8.07827 17.3776 7.71166 17.8938 7.16714 17.9861C6.62262 18.0784 6.10639 17.7118 6.0141 17.1673C5.8794 16.3725 5.50082 15.6393 4.93084 15.0694C4.36085 14.4994 3.62768 14.1208 2.83293 13.9861C2.28841 13.8938 1.92181 13.3776 2.0141 12.8331Z" fill="#292929"/>
<path fill-rule="evenodd" clip-rule="evenodd" d="M7.16714 6.01422C7.71166 6.10651 8.07827 6.62275 7.98598 7.16727C7.78193 8.37115 7.20846 9.48176 6.34505 10.3452C5.48163 11.2086 4.37103 11.7821 3.16714 11.9861C2.62262 12.0784 2.10639 11.7118 2.0141 11.1673C1.92181 10.6227 2.28841 10.1065 2.83293 10.0142C3.62768 9.87952 4.36085 9.50094 4.93084 8.93096C5.50082 8.36097 5.8794 7.6278 6.0141 6.83305C6.10639 6.28853 6.62262 5.92193 7.16714 6.01422Z" fill="#292929"/>
</svg>
