<svg width="24" height="24" viewBox="0 0 24 24" fill="none" xmlns="http://www.w3.org/2000/svg">
<path fill-rule="evenodd" clip-rule="evenodd" d="M12 4C7.58172 4 4 7.58172 4 12C4 16.4183 7.58172 20 12 20C16.4183 20 20 16.4183 20 12C20 7.58172 16.4183 4 12 4ZM2 12C2 6.47715 6.47715 2 12 2C17.5228 2 22 6.47715 22 12C22 17.5228 17.5228 22 12 22C6.47715 22 2 17.5228 2 12Z" fill="#292929"/>
<path fill-rule="evenodd" clip-rule="evenodd" d="M17.2071 6.79289C17.5115 7.09725 17.5869 7.56222 17.3944 7.94721L14.3944 13.9472C14.2977 14.1407 14.1407 14.2977 13.9472 14.3944L7.94721 17.3944C7.56222 17.5869 7.09725 17.5115 6.79289 17.2071C6.48853 16.9027 6.41308 16.4378 6.60557 16.0528L9.60557 10.0528C9.70234 9.85926 9.85926 9.70234 10.0528 9.60557L16.0528 6.60557C16.4378 6.41308 16.9027 6.48853 17.2071 6.79289ZM11.2454 11.2454L9.73607 14.2639L12.7546 12.7546L14.2639 9.73607L11.2454 11.2454Z" fill="#292929"/>
</svg>
