<svg width="24" height="24" viewBox="0 0 24 24" fill="none" xmlns="http://www.w3.org/2000/svg">
<path fill-rule="evenodd" clip-rule="evenodd" d="M12 4C10.8954 4 10 4.89543 10 6C10 7.10457 10.8954 8 12 8C13.1046 8 14 7.10457 14 6C14 4.89543 13.1046 4 12 4ZM8 6C8 3.79086 9.79086 2 12 2C14.2091 2 16 3.79086 16 6C16 8.20914 14.2091 10 12 10C9.79086 10 8 8.20914 8 6Z" fill="#292929"/>
<path fill-rule="evenodd" clip-rule="evenodd" d="M12 8C12.5523 8 13 8.44772 13 9V16.5C13 17.0523 12.5523 17.5 12 17.5C11.4477 17.5 11 17.0523 11 16.5V9C11 8.44772 11.4477 8 12 8Z" fill="#292929"/>
<path fill-rule="evenodd" clip-rule="evenodd" d="M9.52457 12.8339C9.6163 13.3785 9.24917 13.8944 8.70456 13.9861C7.1538 14.2473 5.89878 14.6784 5.06126 15.177C4.17796 15.7029 4 16.1444 4 16.3603C4 16.5034 4.06754 16.7379 4.39832 17.0542C4.73163 17.3729 5.26699 17.706 6.01089 18.0069C7.49345 18.6064 9.61043 19 12 19C14.3896 19 16.5065 18.6064 17.9891 18.0069C18.733 17.706 19.2684 17.3729 19.6017 17.0542C19.9325 16.7379 20 16.5034 20 16.3603C20 16.1442 19.8218 15.7023 18.9386 15.1763C18.1012 14.6775 16.8464 14.2465 15.296 13.9862C14.7513 13.8948 14.3839 13.3791 14.4753 12.8344C14.5668 12.2898 15.0824 11.9224 15.6271 12.0138C17.3288 12.2995 18.8432 12.7916 19.962 13.458C21.0351 14.0971 22 15.0623 22 16.3603C22 17.2223 21.5639 17.9452 20.9838 18.4998C20.4063 19.052 19.6237 19.5032 18.739 19.861C16.9642 20.5787 14.5812 21 12 21C9.4188 21 7.03578 20.5787 5.26104 19.861C4.37628 19.5032 3.59366 19.052 3.01615 18.4998C2.43611 17.9452 2 17.2223 2 16.3603C2 15.0621 2.96521 14.0973 4.03811 13.4586C5.1568 12.7925 6.67101 12.3005 8.37237 12.0139C8.91698 11.9222 9.43284 12.2893 9.52457 12.8339Z" fill="#292929"/>
</svg>
