<svg width="24" height="24" viewBox="0 0 24 24" fill="none" xmlns="http://www.w3.org/2000/svg">
<path fill-rule="evenodd" clip-rule="evenodd" d="M17.3141 2.31439C17.7046 1.92386 18.3378 1.92385 18.7283 2.31436L21.7691 5.35501C22.1596 5.74553 22.1596 6.37869 21.7691 6.76923C21.3786 7.15976 20.7455 7.15977 20.3549 6.76925L17.3141 3.72861C16.9236 3.33809 16.9236 2.70492 17.3141 2.31439Z" fill="#292929"/>
<path fill-rule="evenodd" clip-rule="evenodd" d="M11.2929 3.79302C11.6834 3.40249 12.3166 3.40249 12.7071 3.79302L20.2071 11.293C20.5976 11.6835 20.5976 12.3167 20.2071 12.7072C19.8166 13.0978 19.1834 13.0978 18.7929 12.7072L11.2929 5.20723C10.9024 4.8167 10.9024 4.18354 11.2929 3.79302Z" fill="#292929"/>
<path fill-rule="evenodd" clip-rule="evenodd" d="M13.8321 4.91802C14.2226 5.30854 14.2226 5.9417 13.8321 6.33223L5.5 14.6643V18.5001H9.33579L17.6679 10.168C18.0584 9.77749 18.6916 9.77749 19.0821 10.168C19.4726 10.5585 19.4726 11.1917 19.0821 11.5822L10.6765 19.9879C10.3485 20.3154 9.90366 20.4999 9.44015 20.5001H4.5C3.94772 20.5001 3.5 20.0524 3.5 19.5001V14.5604C3.50021 14.0969 3.68431 13.652 4.01188 13.324L12.4179 4.91802C12.8084 4.52749 13.4416 4.52749 13.8321 4.91802Z" fill="#292929"/>
<path fill-rule="evenodd" clip-rule="evenodd" d="M8.48039 8.85552C8.87092 8.46499 9.50408 8.46499 9.89461 8.85552L12.3321 11.293C12.7226 11.6835 12.7226 12.3167 12.3321 12.7072C11.9416 13.0978 11.3084 13.0978 10.9179 12.7072L8.48039 10.2697C8.08987 9.8792 8.08987 9.24604 8.48039 8.85552Z" fill="#292929"/>
<path fill-rule="evenodd" clip-rule="evenodd" d="M6.23039 11.1055C6.62092 10.715 7.25408 10.715 7.64461 11.1055L10.0821 13.543C10.4726 13.9335 10.4726 14.5667 10.0821 14.9572C9.69158 15.3478 9.05842 15.3478 8.66789 14.9572L6.23039 12.5197C5.83987 12.1292 5.83987 11.496 6.23039 11.1055Z" fill="#292929"/>
<path fill-rule="evenodd" clip-rule="evenodd" d="M20.2071 3.79302C20.5976 4.18354 20.5976 4.8167 20.2071 5.20723L16.4571 8.95723C16.0666 9.34775 15.4334 9.34775 15.0429 8.95723C14.6524 8.5667 14.6524 7.93354 15.0429 7.54302L18.7929 3.79302C19.1834 3.40249 19.8166 3.40249 20.2071 3.79302Z" fill="#292929"/>
<path fill-rule="evenodd" clip-rule="evenodd" d="M5.20711 18.793C5.59763 19.1835 5.59763 19.8167 5.20711 20.2072L2.95711 22.4572C2.56658 22.8478 1.93342 22.8478 1.54289 22.4572C1.15237 22.0667 1.15237 21.4335 1.54289 21.043L3.79289 18.793C4.18342 18.4025 4.81658 18.4025 5.20711 18.793Z" fill="#292929"/>
</svg>
