<svg xmlns="http://www.w3.org/2000/svg" width="12" height="12" viewBox="0 0 12 12" fill="none">
<path fill-rule="evenodd" clip-rule="evenodd" d="M0 0H12V12H0V0Z" fill="#E30A17"/>
<path fill-rule="evenodd" clip-rule="evenodd" d="M8.1751 6.18748C8.1751 7.84216 6.80869 9.18513 5.12588 9.18513C3.44307 9.18513 2.07666 7.84216 2.07666 6.18513C2.07666 4.5281 3.44072 3.18982 5.12354 3.18982C6.80635 3.18982 8.17744 4.53044 8.17744 6.18748H8.1751Z" fill="white"/>
<path fill-rule="evenodd" clip-rule="evenodd" d="M8.32729 6.18745C8.32729 7.51167 7.23511 8.58511 5.88745 8.58511C4.53979 8.58511 3.44995 7.51167 3.44995 6.18745C3.44995 4.86323 4.53979 3.78979 5.88745 3.78979C7.23511 3.78979 8.32495 4.86323 8.32495 6.18745H8.32729Z" fill="#E30A17"/>
<path fill-rule="evenodd" clip-rule="evenodd" d="M8.76787 4.78589L8.74443 5.89448L7.7085 6.17573L8.72803 6.53901L8.70459 7.55386L9.36787 6.76167L10.3733 7.10854L9.79209 6.25776L10.4999 5.41167L9.4124 5.71167L8.76787 4.78589Z" fill="white"/>
</svg>