<svg width="20" height="20" viewBox="0 0 24 24" fill="none" xmlns="http://www.w3.org/2000/svg">
<path d="M17.4444 2H6.55556C6.143 2 5.74733 2.16857 5.45561 2.46864C5.16389 2.7687 5 3.17568 5 3.60003V21.2004C5.00007 21.3432 5.03728 21.4833 5.10778 21.6063C5.17827 21.7293 5.27948 21.8306 5.40091 21.8998C5.52233 21.969 5.65953 22.0035 5.79829 21.9997C5.93705 21.996 6.07229 21.9541 6.19 21.8784L12 18.1433L17.811 21.8784C17.9287 21.9538 18.0638 21.9955 18.2024 21.9991C18.341 22.0027 18.4781 21.9682 18.5993 21.899C18.7206 21.8299 18.8217 21.7287 18.8921 21.6058C18.9626 21.483 18.9998 21.343 19 21.2004V3.60003C19 3.17568 18.8361 2.7687 18.5444 2.46864C18.2527 2.16857 17.857 2 17.4444 2Z" fill="#FF4564"/>
</svg>
