<svg width="24" height="24" viewBox="0 0 24 24" fill="none" xmlns="http://www.w3.org/2000/svg">
<path fill-rule="evenodd" clip-rule="evenodd" d="M2.00001 5.25001C2.00001 4.69772 2.44772 4.25001 3.00001 4.25001H21C21.5523 4.25001 22 4.69772 22 5.25001V18C22 18.4641 21.8156 18.9093 21.4874 19.2374C21.1593 19.5656 20.7141 19.75 20.25 19.75H3.75001C3.28588 19.75 2.84076 19.5656 2.51257 19.2374C2.18438 18.9093 2.00001 18.4641 2.00001 18V5.25001ZM4.00001 6.25001V17.75H20V6.25001H4.00001Z" fill="#292929"/>
<path fill-rule="evenodd" clip-rule="evenodd" d="M2.26285 4.57428C2.63604 4.16716 3.26861 4.13966 3.67573 4.51285L12 12.1434L20.3243 4.51285C20.7314 4.13966 21.364 4.16716 21.7372 4.57428C22.1104 4.9814 22.0828 5.61397 21.6757 5.98716L12.6757 14.2372C12.2934 14.5876 11.7066 14.5876 11.3243 14.2372L2.32428 5.98716C1.91716 5.61397 1.88966 4.9814 2.26285 4.57428Z" fill="#292929"/>
</svg>
