<svg width="24" height="24" viewBox="0 0 24 24" fill="none" xmlns="http://www.w3.org/2000/svg">
<path fill-rule="evenodd" clip-rule="evenodd" d="M12 4C9.23862 4 7.00004 6.23858 7.00004 9C7.00004 11.7614 9.23862 14 12 14C14.7615 14 17 11.7614 17 9C17 6.23858 14.7615 4 12 4ZM5.00004 9C5.00004 5.13401 8.13405 2 12 2C15.866 2 19 5.13401 19 9C19 12.866 15.866 16 12 16C8.13405 16 5.00004 12.866 5.00004 9Z" fill="#292929"/>
<path fill-rule="evenodd" clip-rule="evenodd" d="M12 16C8.49579 16 5.5155 17.8999 3.86555 20.7509C3.58892 21.2289 2.97716 21.3921 2.49915 21.1155C2.02114 20.8389 1.8579 20.2271 2.13454 19.7491C4.11647 16.3245 7.73242 14 12 14C16.2677 14 19.8836 16.3245 21.8656 19.7491C22.1422 20.2271 21.9789 20.8389 21.5009 21.1155C21.0229 21.3921 20.4112 21.2289 20.1345 20.7509C18.4846 17.8999 15.5043 16 12 16Z" fill="#292929"/>
</svg>
