<svg width="24" height="24" viewBox="0 0 24 24" fill="none" xmlns="http://www.w3.org/2000/svg">
<path fill-rule="evenodd" clip-rule="evenodd" d="M7.99999 7.64111C6.89542 7.64111 5.99999 8.53654 5.99999 9.64111C5.99999 10.7457 6.89542 11.6411 7.99999 11.6411C9.10456 11.6411 9.99999 10.7457 9.99999 9.64111C9.99999 8.53654 9.10456 7.64111 7.99999 7.64111ZM3.99999 9.64111C3.99999 7.43197 5.79085 5.64111 7.99999 5.64111C10.2091 5.64111 12 7.43197 12 9.64111C12 11.8503 10.2091 13.6411 7.99999 13.6411C5.79085 13.6411 3.99999 11.8503 3.99999 9.64111Z" fill="#292929"/>
<path fill-rule="evenodd" clip-rule="evenodd" d="M14 8.64111C14 8.08883 14.4477 7.64111 15 7.64111H21C21.5523 7.64111 22 8.08883 22 8.64111C22 9.1934 21.5523 9.64111 21 9.64111H15C14.4477 9.64111 14 9.1934 14 8.64111Z" fill="#292929"/>
<path fill-rule="evenodd" clip-rule="evenodd" d="M14 12C14 11.4477 14.4477 11 15 11H21C21.5523 11 22 11.4477 22 12C22 12.5523 21.5523 13 21 13H15C14.4477 13 14 12.5523 14 12Z" fill="#292929"/>
<path fill-rule="evenodd" clip-rule="evenodd" d="M16 15.6411C16 15.0888 16.4477 14.6411 17 14.6411H21C21.5523 14.6411 22 15.0888 22 15.6411C22 16.1934 21.5523 16.6411 21 16.6411H17C16.4477 16.6411 16 16.1934 16 15.6411Z" fill="#292929"/>
<path fill-rule="evenodd" clip-rule="evenodd" d="M7.99999 13.6411C6.1463 13.6411 4.42182 15.0109 3.97211 16.8756C3.84263 17.4125 3.30243 17.7427 2.76554 17.6132C2.22865 17.4838 1.89838 16.9436 2.02786 16.4067C2.68753 13.6713 5.19429 11.6411 7.99999 11.6411C10.8057 11.6411 13.3124 13.6713 13.9721 16.4067C14.1016 16.9436 13.7713 17.4838 13.2344 17.6132C12.6975 17.7427 12.1573 17.4125 12.0279 16.8756C11.5782 15.0109 9.85367 13.6411 7.99999 13.6411Z" fill="#292929"/>
</svg>
