<svg width="24" height="24" viewBox="0 0 24 24" fill="none" xmlns="http://www.w3.org/2000/svg">
<path fill-rule="evenodd" clip-rule="evenodd" d="M11.8481 3.0001C12.4004 3.0001 12.8481 3.44781 12.8481 4.0001V11.0001C12.8481 11.5524 12.4004 12.0001 11.8481 12.0001C11.2959 12.0001 10.8481 11.5524 10.8481 11.0001V4.0001C10.8481 3.44781 11.2959 3.0001 11.8481 3.0001Z" fill="#292929"/>
<path fill-rule="evenodd" clip-rule="evenodd" d="M7.767 3.43929C8.07673 3.89655 7.95712 4.51832 7.49986 4.82805C5.29009 6.32483 3.84814 8.72518 3.84814 11.6501C3.84814 13.8767 4.69991 16.0048 6.20465 17.5681C7.70814 19.13 9.73899 20.0001 11.8481 20.0001C13.9573 20.0001 15.9882 19.13 17.4916 17.5681C18.9964 16.0048 19.8481 13.8767 19.8481 11.6501C19.8481 8.72518 18.4062 6.32483 16.1964 4.82805C15.7392 4.51832 15.6196 3.89655 15.9293 3.43929C16.239 2.98203 16.8608 2.86243 17.318 3.17215C20.0337 5.01162 21.8481 8.01089 21.8481 11.6501C21.8481 14.383 20.8035 17.0114 18.9326 18.955C17.0604 20.9 14.5129 22.0001 11.8481 22.0001C9.1834 22.0001 6.63589 20.9 4.76372 18.955C2.8928 17.0114 1.84814 14.383 1.84814 11.6501C1.84814 8.01089 3.66257 5.01162 6.37825 3.17215C6.83551 2.86243 7.45727 2.98203 7.767 3.43929Z" fill="#292929"/>
</svg>
