<svg width="24" height="24" viewBox="0 0 24 24" fill="none" xmlns="http://www.w3.org/2000/svg">
<path fill-rule="evenodd" clip-rule="evenodd" d="M4 5.5V18.5H20V5.5H4ZM2 5.25C2 4.2835 2.7835 3.5 3.75 3.5H20.25C21.2165 3.5 22 4.2835 22 5.25V18.75C22 19.7165 21.2165 20.5 20.25 20.5H3.75C2.7835 20.5 2 19.7165 2 18.75V5.25Z" fill="#292929"/>
<path d="M14.625 10.5C15.2463 10.5 15.75 9.99632 15.75 9.375C15.75 8.75368 15.2463 8.25 14.625 8.25C14.0037 8.25 13.5 8.75368 13.5 9.375C13.5 9.99632 14.0037 10.5 14.625 10.5Z" fill="#292929"/>
<path fill-rule="evenodd" clip-rule="evenodd" d="M16.7487 13.8534L20.2926 17.4C20.683 17.7906 21.3162 17.7909 21.7068 17.4005C22.0975 17.0101 22.0978 16.377 21.7074 15.9863L17.9864 12.2625C17.6583 11.9346 17.2128 11.7499 16.7489 11.7499C16.2851 11.7499 15.8402 11.934 15.5121 12.2619C15.5121 12.2618 15.512 12.2619 15.5121 12.2619L13.1036 14.6675C12.7129 15.0578 12.7125 15.6909 13.1028 16.0817C13.4931 16.4724 14.1263 16.4728 14.517 16.0825L16.7487 13.8534Z" fill="#292929"/>
<path fill-rule="evenodd" clip-rule="evenodd" d="M8.62501 11.603L17.2282 20.2071C17.6187 20.5976 18.2518 20.5976 18.6424 20.2071C19.0329 19.8166 19.033 19.1835 18.6425 18.7929L9.86313 10.0127C9.86324 10.0128 9.86301 10.0125 9.86313 10.0127C9.70067 9.85012 9.50743 9.72081 9.29515 9.63281C9.0827 9.54474 8.85498 9.49941 8.625 9.49941C8.39502 9.49941 8.1673 9.54474 7.95485 9.63281C7.74255 9.72081 7.54967 9.84978 7.3872 10.0123L2.29283 15.1076C1.90234 15.4982 1.9024 16.1314 2.29296 16.5219C2.68352 16.9123 3.31668 16.9123 3.70717 16.5217L8.62501 11.603ZM8.44848 11.4264C8.44858 11.4265 8.44838 11.4263 8.44848 11.4264Z" fill="#292929"/>
</svg>
