<svg width="24" height="24" viewBox="0 0 24 24" fill="none" xmlns="http://www.w3.org/2000/svg">
<path fill-rule="evenodd" clip-rule="evenodd" d="M11.0259 2.30817C11.3109 2.10903 11.6509 2 12.0022 2C12.3536 2 12.6936 2.10903 12.9786 2.30817C13.2625 2.5065 13.4775 2.78384 13.6023 3.10062C13.6026 3.10132 13.6029 3.10203 13.6031 3.10274L15.5045 7.88894L20.4335 8.30597C20.7788 8.33973 21.1026 8.47769 21.3658 8.697C21.6285 8.91593 21.8188 9.20566 21.919 9.52718C22.0192 9.84847 22.0265 10.1921 21.9405 10.5172C21.8545 10.8425 21.6773 11.14 21.4251 11.3703L21.4185 11.3763L17.6407 14.7641L18.7967 19.8365C18.797 19.8377 18.7973 19.8389 18.7975 19.84C18.874 20.1692 18.8555 20.5144 18.7434 20.834C18.6308 21.1549 18.4272 21.44 18.1522 21.6494C17.8767 21.8592 17.5431 21.9825 17.1931 21.9983C16.843 22.014 16.4991 21.9212 16.2055 21.7358L16.2005 21.7327L12.0022 19.0481L7.79903 21.7358C7.50539 21.9212 7.16148 22.014 6.81142 21.9983C6.46144 21.9825 6.12778 21.8592 5.8523 21.6494C5.57732 21.44 5.37367 21.1549 5.2611 20.834C5.14901 20.5144 5.13049 20.1692 5.20698 19.84C5.20725 19.8388 5.20752 19.8377 5.20779 19.8365L6.36368 14.7685L2.58601 11.3808C2.3303 11.1511 2.14954 10.8522 2.06151 10.5252C1.97352 10.1985 1.98001 9.85262 2.08046 9.52923C2.18098 9.20563 2.37275 8.91415 2.63771 8.69453C2.90314 8.47452 3.22969 8.3372 3.57739 8.30545L3.584 8.30485L8.5 7.88894L10.4023 3.10045C10.5271 2.78375 10.7421 2.50646 11.0259 2.30817ZM12.0022 4.4901L13.8743 9.20241C14.0142 9.55479 14.3415 9.79769 14.7193 9.82966L19.6795 10.2493L15.8673 13.668C15.5969 13.9105 15.4793 14.2806 15.56 14.6347L16.711 19.6851L12.541 17.0186C12.2125 16.8086 11.792 16.8086 11.4635 17.0186L7.29367 19.6851L8.44449 14.6394C8.52527 14.2852 8.40762 13.9151 8.13717 13.6725L4.3204 10.2497L9.2852 9.82966C9.66302 9.79769 9.99026 9.55479 10.1302 9.20241L12.0022 4.4901Z" fill="#292929"/>
</svg>
