<svg width="24" height="24" viewBox="0 0 24 24" fill="none" xmlns="http://www.w3.org/2000/svg">
<path fill-rule="evenodd" clip-rule="evenodd" d="M10.0001 5C7.79095 5 6.00009 6.79086 6.00009 9C6.00009 11.2091 7.79095 13 10.0001 13C12.2092 13 14.0001 11.2091 14.0001 9C14.0001 6.79086 12.2092 5 10.0001 5ZM4.00009 9C4.00009 5.68629 6.68638 3 10.0001 3C13.3138 3 16.0001 5.68629 16.0001 9C16.0001 12.3137 13.3138 15 10.0001 15C6.68638 15 4.00009 12.3137 4.00009 9Z" fill="#fff"/>
<path fill-rule="evenodd" clip-rule="evenodd" d="M10.0001 16.25C7.53192 16.25 5.39255 17.5773 3.81916 19.8237C3.50232 20.276 2.87876 20.3859 2.4264 20.0691C1.97404 19.7522 1.86417 19.1287 2.18101 18.6763C4.03262 16.0327 6.72825 14.25 10.0001 14.25C13.2719 14.25 15.9676 16.0327 17.8192 18.6763C18.136 19.1287 18.0261 19.7522 17.5738 20.0691C17.1214 20.3859 16.4979 20.276 16.181 19.8237C14.6076 17.5773 12.4683 16.25 10.0001 16.25Z" fill="#fff"/>
<path fill-rule="evenodd" clip-rule="evenodd" d="M22.2072 11.5429C22.5977 11.9334 22.5977 12.5666 22.2072 12.9571L19.2072 15.9571C18.8167 16.3476 18.1835 16.3476 17.793 15.9571L16.293 14.4571C15.9025 14.0666 15.9025 13.4334 16.293 13.0429C16.6835 12.6524 17.3167 12.6524 17.7072 13.0429L18.5001 13.8358L20.793 11.5429C21.1835 11.1524 21.8167 11.1524 22.2072 11.5429Z" fill="#fff"/>
</svg>
