<svg width="24" height="24" viewBox="0 0 24 24" fill="none" xmlns="http://www.w3.org/2000/svg">
<path fill-rule="evenodd" clip-rule="evenodd" d="M10.4693 5.23618C10.2026 5.46596 9.8662 5.7214 9.46701 5.88665C9.07087 6.05057 8.65326 6.1024 8.30943 6.1247C8.08499 6.13925 7.82679 6.14328 7.60171 6.14679C7.4988 6.1484 7.40281 6.1499 7.32014 6.15224C6.64183 6.17149 6.42605 6.26009 6.34307 6.34307C6.26009 6.42605 6.17149 6.64183 6.15224 7.32014C6.1499 7.40281 6.1484 7.4988 6.14679 7.60171C6.14328 7.82679 6.13925 8.08499 6.1247 8.30943C6.1024 8.65326 6.05063 9.07073 5.88671 9.46687L5.88607 9.46841C5.72069 9.86621 5.46526 10.2018 5.2359 10.4678C5.07868 10.6501 4.89343 10.8435 4.73265 11.0113C4.66764 11.0792 4.60663 11.1429 4.55309 11.2C4.34139 11.4258 4.19402 11.6007 4.0986 11.7554C4.00723 11.9035 4 11.9755 4 12C4 12.0245 4.00723 12.0965 4.0986 12.2446C4.19402 12.3993 4.34139 12.5742 4.55309 12.8C4.60663 12.8571 4.66765 12.9208 4.73267 12.9887C4.89344 13.1565 5.07869 13.3499 5.2359 13.5322C5.46526 13.7982 5.72069 14.1338 5.88607 14.5316L5.88683 14.5334C6.05063 14.9296 6.1024 15.347 6.1247 15.6909C6.13925 15.9154 6.14328 16.1736 6.14679 16.3986C6.1484 16.5015 6.1499 16.5975 6.15224 16.6802C6.17149 17.3583 6.26006 17.5739 6.34307 17.6569C6.42605 17.7399 6.64183 17.8285 7.32014 17.8478C7.4028 17.8501 7.49879 17.8516 7.60169 17.8532C7.82678 17.8567 8.08499 17.8608 8.30943 17.8753C8.65326 17.8976 9.07073 17.9494 9.46687 18.1133L9.46841 18.1139C9.86621 18.2793 10.2018 18.5347 10.4678 18.7641C10.6501 18.9213 10.8435 19.1066 11.0113 19.2673C11.0792 19.3324 11.1429 19.3934 11.2 19.4469C11.4258 19.6586 11.6007 19.806 11.7554 19.9014C11.9035 19.9928 11.9755 20 12 20C12.0245 20 12.0965 19.9928 12.2446 19.9014C12.3993 19.806 12.5742 19.6586 12.8 19.4469C12.8571 19.3934 12.9208 19.3324 12.9887 19.2673C13.1565 19.1066 13.3499 18.9213 13.5322 18.7641C13.7982 18.5347 14.1338 18.2793 14.5316 18.1139L14.5334 18.1132C14.9296 17.9494 15.347 17.8976 15.6909 17.8753C15.9154 17.8608 16.1736 17.8567 16.3986 17.8532C16.5016 17.8516 16.5975 17.8501 16.6802 17.8478C17.3583 17.8285 17.5739 17.7399 17.6569 17.6569C17.7399 17.5739 17.8285 17.3583 17.8478 16.6802C17.8501 16.5975 17.8516 16.5016 17.8532 16.3986C17.8567 16.1736 17.8608 15.9154 17.8753 15.6909C17.8976 15.347 17.9494 14.9296 18.1132 14.5334L18.1139 14.5316C18.2793 14.1338 18.5347 13.7982 18.7641 13.5322C18.9213 13.3499 19.1066 13.1565 19.2673 12.9887C19.3324 12.9208 19.3934 12.8571 19.4469 12.8C19.6586 12.5742 19.806 12.3993 19.9014 12.2446C19.9928 12.0965 20 12.0245 20 12C20 11.9757 19.9929 11.9041 19.9017 11.7565C19.8064 11.6023 19.6592 11.4277 19.4473 11.202C19.3943 11.1456 19.3341 11.0828 19.27 11.0159C19.1085 10.8475 18.9222 10.6531 18.7638 10.4693C18.534 10.2026 18.2786 9.8662 18.1133 9.46701C17.9496 9.07081 17.8976 8.65296 17.8753 8.30906C17.8608 8.0846 17.8567 7.82641 17.8532 7.60135C17.8516 7.49845 17.8501 7.40247 17.8478 7.31982C17.8285 6.64172 17.7399 6.42608 17.6569 6.34307C17.5739 6.26006 17.3583 6.17149 16.6802 6.15224C16.5975 6.1499 16.5015 6.1484 16.3986 6.14679C16.1736 6.14328 15.9154 6.13925 15.6909 6.1247C15.347 6.1024 14.9296 6.05063 14.5334 5.88683L14.5316 5.88607C14.1338 5.72069 13.7982 5.46526 13.5322 5.2359C13.3499 5.07869 13.1565 4.89344 12.9887 4.73267C12.9208 4.66765 12.8571 4.60663 12.8 4.55309C12.5742 4.34139 12.3993 4.19402 12.2446 4.0986C12.0965 4.00723 12.0245 4 12 4C11.9757 4 11.9041 4.00711 11.7565 4.09828C11.6023 4.19358 11.4277 4.34082 11.202 4.55269C11.1456 4.60567 11.0828 4.66589 11.0159 4.73003C10.8475 4.89146 10.6531 5.07776 10.4693 5.23618ZM10.7054 2.39678C11.0472 2.18565 11.4835 2 12 2C12.5164 2 12.9528 2.18554 13.2947 2.39645C13.63 2.60333 13.9266 2.86777 14.1681 3.09417C14.2604 3.18081 14.3429 3.25991 14.4202 3.33399C14.5678 3.47553 14.6963 3.59876 14.8383 3.72128C15.0442 3.89886 15.1905 3.99387 15.2985 4.03893C15.3922 4.07748 15.5511 4.11143 15.8203 4.12889C15.9992 4.14048 16.1648 4.14285 16.3554 4.14558C16.4706 4.14724 16.595 4.14902 16.7369 4.15305C17.3392 4.17014 18.358 4.21571 19.0711 4.92885C19.7843 5.642 19.8299 6.66083 19.847 7.26307C19.851 7.40501 19.8528 7.52938 19.8544 7.64461C19.8571 7.83522 19.8595 8.00083 19.8711 8.17967C19.8886 8.44981 19.9227 8.60884 19.9614 8.70246C20.0066 8.8112 20.1016 8.9579 20.279 9.16382C20.4019 9.30648 20.5259 9.4357 20.6685 9.5843C20.7418 9.66065 20.82 9.74212 20.9054 9.83315C21.1317 10.0741 21.3962 10.3704 21.6032 10.7054C21.8144 11.0472 22 11.4835 22 12C22 12.5164 21.8145 12.9528 21.6035 13.2947C21.3967 13.63 21.1322 13.9266 20.9058 14.1681C20.8192 14.2604 20.7401 14.3429 20.666 14.4202C20.5245 14.5677 20.4012 14.6962 20.2787 14.8383C20.1011 15.0443 20.0061 15.1906 19.961 15.2985C19.9225 15.3923 19.8886 15.5511 19.8711 15.8203C19.8595 15.9992 19.8571 16.1648 19.8544 16.3554C19.8528 16.4706 19.851 16.595 19.847 16.7369C19.8299 17.3392 19.7843 18.358 19.0711 19.0711C18.358 19.7843 17.3392 19.8299 16.7369 19.847C16.595 19.851 16.4706 19.8528 16.3554 19.8544C16.1648 19.8571 15.9992 19.8595 15.8203 19.8711C15.5511 19.8886 15.3923 19.9225 15.2985 19.961C15.1906 20.0061 15.0443 20.1011 14.8383 20.2787C14.6962 20.4012 14.5677 20.5245 14.4202 20.666C14.3429 20.7401 14.2604 20.8192 14.1681 20.9058C13.9266 21.1322 13.63 21.3967 13.2947 21.6035C12.9528 21.8145 12.5164 22 12 22C11.4836 22 11.0472 21.8145 10.7053 21.6035C10.37 21.3967 10.0734 21.1322 9.83195 20.9058C9.73956 20.8192 9.65709 20.7401 9.57984 20.666C9.43225 20.5245 9.30375 20.4012 9.16167 20.2787C8.95552 20.1009 8.80915 20.0059 8.70118 19.9609C8.60782 19.9225 8.44922 19.8886 8.18003 19.8711C8.00122 19.8595 7.8356 19.8571 7.64497 19.8544C7.52974 19.8528 7.40536 19.851 7.26339 19.847C6.66115 19.8299 5.64203 19.7843 4.92885 19.0711C4.21571 18.358 4.17014 17.3392 4.15305 16.7369C4.14902 16.595 4.14724 16.4706 4.14558 16.3554C4.14285 16.1648 4.14048 15.9992 4.12889 15.8203C4.11143 15.5511 4.07748 15.3922 4.03893 15.2985C3.99387 15.1905 3.89886 15.0442 3.72128 14.8383C3.59876 14.6963 3.47553 14.5678 3.33399 14.4202C3.25991 14.3429 3.18081 14.2604 3.09417 14.1681C2.86777 13.9266 2.60333 13.63 2.39645 13.2947C2.18554 12.9528 2 12.5164 2 12C2 11.4836 2.18554 11.0472 2.39645 10.7053C2.60333 10.37 2.86777 10.0734 3.09417 9.83195C3.18081 9.73956 3.2599 9.65708 3.33398 9.57984C3.47553 9.43225 3.59876 9.30375 3.72128 9.16167C3.89892 8.95568 3.99394 8.80937 4.03898 8.70143C4.07744 8.60809 4.11142 8.44946 4.12889 8.18003C4.14048 8.00122 4.14285 7.8356 4.14558 7.64498C4.14724 7.52974 4.14902 7.40536 4.15305 7.26339C4.17014 6.66115 4.21568 5.64203 4.92885 4.92885C5.64203 4.21568 6.66115 4.17014 7.26339 4.15305C7.40536 4.14902 7.52974 4.14724 7.64498 4.14558C7.8356 4.14285 8.00122 4.14048 8.18003 4.12889C8.45003 4.11138 8.60877 4.07729 8.70203 4.03873M10.7054 2.39678C10.3704 2.60376 10.0741 2.86834 9.83315 3.09457ZM9.83315 3.09457C9.74212 3.18003 9.66065 3.2582 9.5843 3.33148ZM9.5843 3.33148C9.43571 3.47407 9.30648 3.59809 9.16382 3.72101ZM9.16382 3.72101C8.95772 3.89858 8.8108 3.99367 8.70203 4.03873Z" fill="#292929"/>
<path fill-rule="evenodd" clip-rule="evenodd" d="M15.7241 9.31034C16.105 9.71028 16.0896 10.3433 15.6897 10.7241L11.4897 14.7241C11.1034 15.092 10.4966 15.092 10.1103 14.7241L8.31034 13.0099C7.91041 12.629 7.89498 11.996 8.27586 11.5961C8.65675 11.1961 9.28972 11.1807 9.68966 11.5616L10.8 12.619L14.3103 9.27586C14.7103 8.89498 15.3433 8.91041 15.7241 9.31034Z" fill="#292929"/>
</svg>
