<svg width="24" height="24" viewBox="0 0 24 24" fill="none" xmlns="http://www.w3.org/2000/svg">
<path fill-rule="evenodd" clip-rule="evenodd" d="M9.36709 4.0135C8.17111 3.92546 6.98333 4.2702 6.02032 4.98485C5.05732 5.69951 4.38324 6.73647 4.12101 7.90667C3.85879 9.07686 4.02587 10.3023 4.5918 11.3596C4.71586 11.5914 4.74367 11.8627 4.66921 12.1148L4.1603 13.8378L5.88647 13.3304C6.13825 13.2564 6.40904 13.2844 6.64041 13.4082C7.69769 13.9741 8.92315 14.1412 10.0933 13.879C11.2635 13.6168 12.3005 12.9427 13.0152 11.9797C13.7298 11.0167 14.0745 9.82889 13.9865 8.63292C13.8985 7.43694 13.3835 6.31244 12.5355 5.46447C11.6876 4.6165 10.5631 4.10155 9.36709 4.0135ZM4.82845 3.37879C6.17665 2.37827 7.83955 1.89564 9.51392 2.0189C11.1883 2.14216 12.7626 2.8631 13.9497 4.05026C15.1369 5.23742 15.8578 6.81172 15.9811 8.48608C16.1044 10.1605 15.6217 11.8233 14.6212 13.1716C13.6207 14.5198 12.1689 15.4635 10.5307 15.8306C9.03026 16.1668 7.46495 15.9989 6.07506 15.3596L4.13718 15.9293C3.85 16.0136 3.54517 16.0191 3.25517 15.9451C2.96516 15.8711 2.70044 15.7203 2.48881 15.5087C2.27717 15.2971 2.12643 15.0323 2.05241 14.7423C1.9784 14.4523 1.98385 14.1477 2.06818 13.8606L2.64007 11.9242C2.00105 10.5345 1.83324 8.96949 2.16942 7.46933C2.53654 5.83106 3.48024 4.37931 4.82845 3.37879Z" fill="#292929"/>
<path fill-rule="evenodd" clip-rule="evenodd" d="M14.1638 6.9472C14.193 6.39568 14.6637 5.97223 15.2152 6.0014C16.4152 6.06485 17.581 6.42177 18.6047 7.04105C19.6286 7.66041 20.4785 8.52294 21.073 9.55111C21.6677 10.5795 21.9871 11.7392 21.9996 12.9226C22.0106 13.9614 21.7849 14.9868 21.3421 15.9254L21.9254 17.8556C22.0134 18.147 22.0192 18.457 21.9419 18.7516C21.8647 19.046 21.7082 19.3114 21.4923 19.5214C21.2767 19.7311 21.0097 19.878 20.7206 19.9497C20.4317 20.0215 20.1286 20.0162 19.8422 19.9344L17.8306 19.3566C17.0209 19.721 16.1481 19.9351 15.257 19.9874C14.2282 20.0477 13.1978 19.8911 12.2358 19.5275C11.2737 19.1639 10.4017 18.6015 9.68046 17.877C8.95912 17.1525 8.4056 16.283 8.05969 15.3273C7.87174 14.8079 8.14036 14.2346 8.65968 14.0466C9.179 13.8587 9.75235 14.1273 9.94031 14.6466C10.1858 15.325 10.5801 15.9459 11.0978 16.4659C11.6156 16.986 12.2447 17.3928 12.9428 17.6567C13.641 17.9206 14.3906 18.0348 15.1398 17.9908C15.889 17.9469 16.6184 17.7459 17.278 17.4028C17.5053 17.2845 17.7693 17.2581 18.0156 17.3288L19.8348 17.8514L19.3113 16.1193C19.2335 15.8616 19.2628 15.5834 19.3926 15.3476C19.8004 14.6071 20.0086 13.7804 19.9997 12.9438C19.9909 12.1072 19.7652 11.2847 19.3417 10.5523C18.918 9.81973 18.3094 9.19983 17.5696 8.75232C16.8296 8.30472 15.9835 8.04482 15.1096 7.99861C14.5581 7.96944 14.1346 7.49871 14.1638 6.9472Z" fill="#292929"/>
</svg>
