<svg width="24" height="24" viewBox="0 0 24 24" fill="none" xmlns="http://www.w3.org/2000/svg">
<path d="M9.54545 21V14.7393H14.4545V21H21V11.609C21.0001 11.5062 20.979 11.4044 20.9379 11.3094C20.8969 11.2144 20.8366 11.1281 20.7607 11.0553L12.5789 3.22952C12.5029 3.15676 12.4126 3.09904 12.3133 3.05965C12.214 3.02027 12.1075 3 12 3C11.8925 3 11.786 3.02027 11.6867 3.05965C11.5874 3.09904 11.4971 3.15676 11.4211 3.22952L3.23932 11.0553C3.16336 11.1281 3.10313 11.2144 3.06207 11.3094C3.02101 11.4044 2.99992 11.5062 3 11.609V21H9.54545Z" stroke="#292929" stroke-width="2" stroke-linecap="round" stroke-linejoin="round"/>
</svg>
