<svg width="24" height="24" viewBox="0 0 24 24" fill="none" xmlns="http://www.w3.org/2000/svg">
<path d="M12 2C10.0222 2 8.08879 2.58649 6.4443 3.6853C4.79981 4.78412 3.51809 6.3459 2.76121 8.17316C2.00433 10.0004 1.8063 12.0111 2.19215 13.9509C2.578 15.8907 3.53041 17.6725 4.92894 19.0711C6.32746 20.4696 8.10929 21.422 10.0491 21.8078C11.9889 22.1937 13.9996 21.9957 15.8268 21.2388C17.6541 20.4819 19.2159 19.2002 20.3147 17.5557C21.4135 15.9112 22 13.9778 22 12C21.9972 9.34869 20.9427 6.80678 19.068 4.93202C17.1932 3.05727 14.6513 2.0028 12 2ZM15.899 12.6327L10.899 16.0942C10.7836 16.174 10.6485 16.2208 10.5085 16.2293C10.3684 16.2379 10.2286 16.208 10.1043 16.1428C9.98006 16.0776 9.87596 15.9797 9.80333 15.8596C9.73071 15.7395 9.69231 15.6019 9.69231 15.4615V8.53846C9.69231 8.39812 9.73071 8.26046 9.80333 8.14037C9.87596 8.02029 9.98006 7.92236 10.1043 7.8572C10.2286 7.79203 10.3684 7.76211 10.5085 7.77067C10.6485 7.77923 10.7836 7.82595 10.899 7.90577L15.899 11.3673C16.0014 11.4381 16.085 11.5326 16.1428 11.6428C16.2006 11.753 16.2308 11.8756 16.2308 12C16.2308 12.1244 16.2006 12.247 16.1428 12.3572C16.085 12.4674 16.0014 12.5619 15.899 12.6327Z" fill="#ffffff"/>
</svg>
