<svg width="24" height="24" viewBox="0 0 24 24" fill="none" xmlns="http://www.w3.org/2000/svg">
<path fill-rule="evenodd" clip-rule="evenodd" d="M14.4201 2.09255C14.7737 2.25624 15 2.61039 15 3.00001V21C15 21.3896 14.7737 21.7438 14.4201 21.9075C14.0666 22.0712 13.6501 22.0146 13.353 21.7625L7.44542 16.75H3.6875C3.21048 16.75 2.77262 16.5425 2.46421 16.2061C2.15848 15.8725 2 15.4374 2 15V9.00001C2 8.56261 2.15848 8.12749 2.46421 7.79396C2.77261 7.45752 3.21048 7.25001 3.6875 7.25001H7.44542L13.353 2.2375C13.6501 1.98543 14.0666 1.92886 14.4201 2.09255ZM13 5.15996L8.45948 9.01252C8.27877 9.16585 8.04949 9.25001 7.8125 9.25001H4V14.75H7.8125C8.04949 14.75 8.27877 14.8342 8.45948 14.9875L13 18.8401V5.15996Z" fill="#fff"/>
<path fill-rule="evenodd" clip-rule="evenodd" d="M8 8.00001C8.55228 8.00001 9 8.44773 9 9.00001V16C9 16.5523 8.55228 17 8 17C7.44772 17 7 16.5523 7 16V9.00001C7 8.44773 7.44772 8.00001 8 8.00001Z" fill="#fff"/>
<path fill-rule="evenodd" clip-rule="evenodd" d="M18 9.00001C18.5523 9.00001 19 9.44773 19 10V14C19 14.5523 18.5523 15 18 15C17.4477 15 17 14.5523 17 14V10C17 9.44773 17.4477 9.00001 18 9.00001Z" fill="#fff"/>
<path fill-rule="evenodd" clip-rule="evenodd" d="M19.3164 6.27017C19.7195 5.89262 20.3523 5.91332 20.7298 6.3164C22.1873 7.8724 23 9.89535 23 12C23 14.1047 22.1873 16.1276 20.7298 17.6836C20.3523 18.0867 19.7195 18.1074 19.3164 17.7299C18.9133 17.3523 18.8926 16.7195 19.2702 16.3164C20.3886 15.1223 21 13.585 21 12C21 10.415 20.3886 8.87774 19.2702 7.68363C18.8926 7.28054 18.9133 6.64772 19.3164 6.27017Z" fill="#fff"/>
</svg>
